<?xml version="1.0" encoding="UTF-8" standalone="no"?>
<!-- Created with Inkscape (http://www.inkscape.org/) -->

<svg
   width="419.62796mm"
   height="264.96939mm"
   viewBox="0 0 419.62796 264.96939"
   version="1.1"
   id="svg5049"
   xml:space="preserve"
   inkscape:version="1.2.2 (b0a8486541, 2022-12-01)"
   sodipodi:docname="icons-physio-kozalla.svg"
   xmlns:inkscape="http://www.inkscape.org/namespaces/inkscape"
   xmlns:sodipodi="http://sodipodi.sourceforge.net/DTD/sodipodi-0.dtd"
   xmlns="http://www.w3.org/2000/svg"
   xmlns:svg="http://www.w3.org/2000/svg"><sodipodi:namedview
     id="namedview5051"
     pagecolor="#ffffff"
     bordercolor="#000000"
     borderopacity="0.25"
     inkscape:showpageshadow="2"
     inkscape:pageopacity="0.0"
     inkscape:pagecheckerboard="0"
     inkscape:deskcolor="#d1d1d1"
     inkscape:document-units="mm"
     showgrid="false"
     inkscape:zoom="0.59241723"
     inkscape:cx="701.3638"
     inkscape:cy="489.51986"
     inkscape:window-width="1534"
     inkscape:window-height="831"
     inkscape:window-x="66"
     inkscape:window-y="32"
     inkscape:window-maximized="1"
     inkscape:current-layer="layer1" /><defs
     id="defs5046" /><g
     inkscape:label="Layer 1"
     inkscape:groupmode="layer"
     id="layer1"
     transform="translate(115.38629,-52.53212)"><path
       style="fill:#000000;stroke-width:0.264583"
       d="m -80.793124,172.67439 c -3.087069,-1.27013 -5.34574,-3.21215 -7.594579,-6.52986 -0.443873,-0.65484 -1.871086,-2.39151 -3.171586,-3.85926 -2.46557,-2.78266 -3.076,-3.877 -3.38731,-6.07251 -0.1024,-0.72216 -0.46094,-2.38991 -0.79676,-3.70612 -0.87778,-3.44029 -1.14943,-5.76135 -1.44864,-12.37764 -0.32368,-7.15722 -0.65473,-10.4252 -1.37156,-13.53967 -1.2387,-5.38189 -2.853291,-8.92103 -7.919351,-17.35899 -4.79076,-7.97943 -6.68335,-12.391636 -7.87528,-18.359756 -1.28152,-6.4167 -1.34185,-10.1222 -0.31015,-19.05 0.8471,-7.3304 0.80253,-7.14375 1.70583,-7.14375 1.48147,0 1.49587,0.49563 0.29968,10.31875 -0.44973,3.69314 -0.51407,8.50502 -0.14465,10.81741 0.87987,5.50752 1.1947,6.95409 2.11453,9.71561 1.2855,3.85933 2.70794,6.694866 6.62242,13.201346 3.65011,6.06705 4.752621,8.19642 6.096141,11.77396 1.90637,5.07631 2.70379,9.94326 3.03449,18.52083 0.30358,7.87416 1.18305,13.91129 2.14255,14.70761 0.22253,0.18468 1.48865,0.37059 2.958629,0.43442 2.298636,0.0998 2.695194,0.0467 3.760255,-0.50376 l 1.190625,-0.61535 -0.08878,-3.57188 c -0.145417,-5.85051 0.47865,-8.40173 3.093948,-12.64822 2.169843,-3.5232 2.592178,-4.89885 2.184043,-7.11389 -0.173363,-0.94087 -0.773369,-2.86219 -1.333344,-4.26959 -1.983782,-4.98591 -2.840276,-8.69967 -3.476368,-15.07354 -0.373423,-3.74186 0.576468,-1.83146 -7.788208,-15.663496 -2.59603,-4.29287 -5.16724,-8.77066 -5.7138,-9.95066 -2.204821,-4.76013 -3.675371,-10.96074 -3.677471,-15.50618 -9.4e-4,-2.03561 0.0609,-2.33898 0.5281,-2.58899 0.34671,-0.18555 0.69272,-0.19568 1.00347,-0.0294 0.391961,0.20977 0.529731,0.86594 0.793581,3.77962 0.53075,5.861 2.01489,10.87401 4.6234,15.61654 0.6161,1.12013 3.50143,5.97117 6.411847,10.78009 l 5.291667,8.743496 0.79375,-0.15775 c 1.141465,-0.22686 2.784869,-1.18672 3.348151,-1.95556 0.478192,-0.6527 0.470363,-0.70177 -0.590931,-3.704166 -3.294486,-9.32011 -5.847138,-20.52787 -7.005889,-30.76028 -0.480933,-4.2469 -0.400262,-4.69388 0.847154,-4.69388 0.890537,0 1.029176,0.49238 1.676241,5.95312 0.659495,5.56563 1.727867,11.27437 3.218537,17.19792 1.118767,4.4457 4.381315,14.676136 5.400141,16.933326 0.922644,2.0441 1.27105,4.33316 1.099822,7.22598 -0.186343,3.1482 -0.734369,4.80511 -1.939179,5.86294 -1.234212,1.08366 -2.495481,1.09368 -3.560857,0.0283 -0.583251,-0.58325 -0.774235,-1.02234 -0.776804,-1.78593 -0.0019,-0.5569 -0.300895,-1.60786 -0.664493,-2.33546 l -0.661091,-1.32292 0.143733,1.5732 c 0.318458,3.48564 0.80527,5.25235 3.571258,12.96064 0.770591,2.14749 0.838195,2.58186 0.74123,4.7625 -0.11567,2.60137 -0.14406,2.6715 -3.212475,7.93565 -1.280946,2.19757 -2.143612,5.14772 -1.984499,6.78659 l 0.08537,0.87932 0.949217,-0.83603 c 1.788282,-1.57502 5.404337,-9.37437 7.118204,-15.353 1.973186,-6.88325 2.501519,-11.63315 2.301709,-20.69324 -0.224526,-10.180776 -1.067115,-19.420416 -2.330855,-25.559626 l -0.550267,-2.67319 0.654947,-1.82473 c 1.690835,-4.71081 3.402637,-13.01823 3.783446,-18.361194 0.204139,-2.864156 0.41479,-3.439583 1.259157,-3.439583 0.94228,0 1.234234,0.516156 1.234234,2.182046 0,1.302635 0.164843,1.848131 1.0434,3.452811 0.573871,1.04817 1.539537,3.33452 2.145927,5.08077 1.907403,5.49285 5.275522,11.30226 7.011202,12.09309 0.833101,0.37959 1.038058,0.15865 0.714322,-0.77002 -0.153564,-0.44052 -0.165156,-0.99571 -0.0285,-1.36512 0.202887,-0.54846 0.348302,-0.60305 1.220427,-0.45819 1.963203,0.32611 2.016099,0.31664 2.275891,-0.40737 0.38508,-1.07316 -0.494065,-2.22459 -4.289296,-5.61775 -3.620653,-3.23709 -4.502004,-4.31505 -5.472493,-6.69329 -0.999297,-2.448838 -1.875417,-6.382024 -1.5406,-6.916249 0.315986,-0.504177 1.358302,-0.745893 1.708086,-0.39611 0.126183,0.126181 0.54187,1.475715 0.923751,2.998964 1.126315,4.492635 1.469821,5.028665 5.942182,9.272565 2.176483,2.0653 4.218008,4.17702 4.536725,4.69272 0.724744,1.17266 0.776873,3.12496 0.110588,4.14183 -0.46814,0.71448 -0.467312,0.71719 0.514588,1.68486 0.540914,0.53308 1.279975,1.60839 1.642354,2.38957 0.550635,1.18701 0.637122,1.69128 0.526481,3.06965 -0.158049,1.96894 -0.880764,3.51087 -2.969218,6.33487 -2.923487,3.95314 -2.864651,3.68559 -3.109137,14.138736 -0.116917,4.99873 -0.181483,13.90202 -0.143481,19.78509 l 0.06909,10.69649 2.910416,1.17595 2.910417,1.17595 3.042708,-0.68257 c 3.625541,-0.81332 6.005902,-0.91229 6.956761,-0.28927 0.954207,0.62522 2.303656,2.73796 2.303656,3.60668 0,1.01564 -1.087644,2.14203 -2.068351,2.14203 -0.423886,0 -1.095282,-0.25531 -1.491991,-0.56736 -0.601787,-0.47337 -0.702463,-0.72542 -0.607668,-1.52135 0.06249,-0.5247 0.21242,-1.18128 0.333176,-1.45907 0.204306,-0.46999 0.129165,-0.4931 -1.081659,-0.33276 -0.715669,0.0948 -2.528165,0.42826 -4.027773,0.74108 l -2.726555,0.56876 -0.678307,1.33857 c -0.373068,0.73621 -0.917496,1.66209 -1.209842,2.05751 l -0.531537,0.71894 1.02358,0.88149 c 2.667082,2.29683 3.585078,3.30289 4.200157,4.60306 0.366144,0.77396 0.784546,1.48065 0.929783,1.57041 0.338574,0.20925 0.341747,1.60912 0.0051,2.23821 -0.405397,0.75749 -1.615538,1.06986 -2.577586,0.66535 -1.043414,-0.43872 -1.387917,-1.68039 -0.74041,-2.66861 0.5418,-0.82689 0.318542,-1.23472 -1.764009,-3.22231 -2.935917,-2.80204 -3.609962,-3.18288 -8.59926,-4.85867 -4.799081,-1.61189 -7.625742,-2.31142 -9.41601,-2.33024 l -0.99899,-0.0105 0.420449,0.81307 c 0.536758,1.03797 0.300749,2.18316 -0.595148,2.88788 -0.88423,0.69553 -1.472026,0.67196 -2.363417,-0.0948 -0.989862,-0.85145 -0.96864,-2.05499 0.06621,-3.7549 1.33486,-2.19272 2.429854,-2.49079 6.663375,-1.81382 0.985642,0.15761 1.067139,0.11573 1.662002,-0.85408 0.344045,-0.5609 1.130196,-1.56244 1.747001,-2.22565 0.83725,-0.90023 1.083299,-1.35178 0.970865,-1.78173 l -0.150604,-0.57591 -0.667379,0.52496 c -0.896361,0.70508 -1.806578,0.66138 -2.59242,-0.12447 -0.889984,-0.88998 -0.837271,-1.94954 0.160036,-3.21679 2.010286,-2.55441 3.622223,-1.91233 5.180918,2.06372 l 0.756488,1.92971 0.07024,-4.89225 c 0.558112,-38.874966 0.264747,-35.104816 3.047791,-39.168436 2.845813,-4.15527 3.139355,-4.67021 3.286164,-5.76476 0.251466,-1.87482 -0.109863,-2.90241 -1.514467,-4.30701 -1.306684,-1.30669 -1.847016,-1.58223 -1.847016,-0.9419 0,0.50818 -1.074738,1.43335 -1.904177,1.63916 -1.510046,0.37471 -3.405934,-0.93053 -5.580595,-3.842 -0.496424,-0.66462 -1.124781,-1.07542 -2.225852,-1.45521 -1.20637,-0.4161 -1.552641,-0.65947 -1.620623,-1.13904 -0.105709,-0.74567 0.374785,-1.3745 1.050271,-1.3745 0.492816,0 0.492781,-0.0184 -0.0019,-0.99218 -0.277185,-0.54571 -1.007287,-2.42094 -1.622449,-4.16719 -0.615159,-1.74625 -1.27458,-3.47266 -1.465376,-3.83646 -0.417274,-0.79564 -0.430435,-0.76185 -1.030362,2.64583 -0.553201,3.14229 -1.769366,7.98457 -2.653368,10.56467 l -0.6735,1.9657 0.51407,2.66451 c 1.758177,9.11289 2.902148,27.852406 2.147252,35.174376 -0.85607,8.30328 -3.691345,17.60728 -7.455799,24.46631 l -1.068234,1.94638 0.616638,0.65855 c 0.747035,0.79781 3.898405,2.76097 8.653031,5.39044 2.246831,1.24257 3.779909,2.27343 4.199879,2.82404 0.7902,1.036 1.066522,2.90287 0.597332,4.0356 -0.714659,1.72539 -3.375909,3.17816 -5.821889,3.17816 -1.131732,0 -4.043842,-0.75084 -6.047381,-1.55922 l -1.416939,-0.5717 0.801442,0.99932 c 0.44079,0.54962 1.401535,1.70345 2.134989,2.56406 1.785969,2.0956 2.272604,3.15119 2.275943,4.93687 0.0072,3.85674 -4.08029,5.88104 -8.337944,4.12928 z m 4.345871,-1.8717 c 1.693299,-0.7075 2.225977,-2.41241 1.252487,-4.00877 -0.270272,-0.4432 -1.192561,-1.59613 -2.049531,-2.56205 -0.85697,-0.96592 -2.629688,-3.37217 -3.939376,-5.34722 -1.644362,-2.47975 -2.504064,-3.55341 -2.778125,-3.46953 -0.218281,0.0668 -1.11125,0.37908 -1.984375,0.69394 -1.365134,0.49227 -1.944828,0.55138 -4.138488,0.42199 l -2.550988,-0.15047 0.29073,0.94728 c 0.16963,0.55271 1.16288,1.89741 2.384604,3.22833 1.151631,1.25458 2.729926,3.18341 3.507322,4.28628 2.315858,3.28548 4.491128,5.04024 7.385987,5.95816 1.383659,0.43875 1.57426,0.43889 2.619753,0.002 z m 8.200374,-11.26217 c 1.701689,-0.64699 2.279764,-2.34025 1.152269,-3.37518 -0.327422,-0.30054 -2.083594,-1.37744 -3.902605,-2.39311 -4.888796,-2.72972 -6.07128,-3.44428 -7.616004,-4.60225 l -1.398297,-1.0482 -1.322586,0.61086 -1.322586,0.61085 0.163103,1.71979 c 0.295415,3.11498 1.899266,4.95346 5.996141,6.87332 3.590546,1.68259 6.537057,2.25539 8.250565,1.60392 z m 16.101227,-15.97993 c 0.400182,-0.63346 0.727604,-1.3347 0.727604,-1.5583 0,-0.43793 -0.938959,-0.87445 -4.481404,-2.08339 -3.114789,-1.06299 -3.495823,-1.02461 -4.6346,0.46681 -0.515991,0.67577 -0.938163,1.36817 -0.938163,1.53867 0,0.30332 7.025013,2.70648 8.069792,2.76056 0.352438,0.0183 0.772171,-0.35726 1.256771,-1.12435 z m -25.016394,-28.67908 c 0.641191,-1.50487 0.779685,-5.95673 0.242763,-7.80368 l -0.430961,-1.48245 -1.504275,0.90583 c -0.82735,0.4982 -1.719639,0.90583 -1.982859,0.90583 -0.263224,0 -0.478587,0.12485 -0.478587,0.27746 0,0.1526 0.66284,1.55159 1.472978,3.10885 0.810136,1.55727 1.540187,3.33741 1.622335,3.95587 0.184232,1.38701 0.50682,1.42732 1.058606,0.13229 z"
       id="path5276" /><path
       style="fill:#000000;stroke-width:0.264583"
       d="m 65.077271,304.3115 c -0.132091,-0.32742 -0.669523,-6.56932 -1.194292,-13.87089 -0.540885,-7.52581 -1.121016,-13.91632 -1.339456,-14.75497 -0.576937,-2.21502 -1.434457,-3.71888 -4.256513,-7.46481 -2.414196,-3.20454 -4.335309,-6.54158 -4.335309,-7.53057 0,-0.36425 -0.387858,-0.47411 -2.182813,-0.61834 -6.940533,-0.55766 -12.650603,-2.18389 -18.723073,-5.33232 -6.21914,-3.22448 -7.39397,-5.51123 -7.05365,-13.72966 0.26002,-6.27938 1.79921,-12.18786 5.57094,-21.38523 1.43644,-3.50277 1.67231,-4.29296 1.48078,-4.96081 -0.21337,-0.74397 -2.35343,-6.10749 -2.50327,-6.27382 -0.0377,-0.0419 -5.21721,2.19426 -11.51,4.96918 -7.40151,3.26382 -11.6173798,4.98944 -11.9397598,4.88712 -0.57851,-0.18361 -0.95611,-1.35969 -0.56281,-1.75298 0.14763,-0.14764 5.4312398,-2.55164 11.7413498,-5.34223 l 11.47293,-5.07379 0.16259,-1.69796 c 0.1448,-1.51216 0.26585,-1.79259 1.10624,-2.56275 1.49641,-1.37135 4.14542,-2.0631 7.8593,-2.05234 6.48834,0.0188 9.524996,1.55386 9.524996,4.81495 v 1.03416 l 5.357812,0.16799 c 2.946797,0.0924 8.401886,0.2449 12.12242,0.33891 l 6.76461,0.17092 0.246848,-1.55837 c 0.246727,-1.55758 0.247317,-1.55836 1.172893,-1.55836 h 0.926041 l 0.17507,5.42396 c 0.247914,7.68087 1.05696,11.54117 3.529578,16.84108 0.621298,1.33171 1.391076,3.20695 1.710624,4.16719 0.477846,1.43592 0.682858,1.74593 1.154737,1.7461 0.736939,2.6e-4 3.311573,1.21945 5.518264,2.6131 0.949984,0.59997 1.952503,1.09013 2.227818,1.08924 0.275317,-7.9e-4 1.522889,-0.62596 2.772381,-1.38906 1.249492,-0.76309 3.001446,-1.73474 3.89323,-2.15922 1.566071,-0.74543 1.639853,-0.82634 2.161214,-2.37018 0.296884,-0.87912 1.480426,-3.32979 2.630099,-5.44593 1.14966,-2.11615 2.28618,-4.43486 2.52558,-5.1527 0.71129,-2.13277 1.19243,-6.37223 1.1976,-10.55233 0.003,-2.18603 0.126,-4.14638 0.27874,-4.43177 0.30616,-0.57206 1.30379,-0.68035 1.78986,-0.19427 0.17462,0.17462 0.3175,0.84543 0.3175,1.49068 v 1.17318 l 4.03489,-0.16568 c 2.2192,-0.0911 7.57701,-0.2432 11.90625,-0.33793 l 7.87136,-0.17224 5.3e-4,-0.82203 c 7.9e-4,-1.82021 1.52079,-3.52934 3.66504,-4.12139 2.15772,-0.59578 6.25791,-0.87116 8.49274,-0.57039 4.38276,0.58982 6.39618,2.10254 6.49387,4.87896 l 0.0471,1.33987 10.95717,4.82316 c 6.02644,2.65273 11.28459,5.00591 11.68477,5.22929 0.89946,0.50208 0.99257,1.59326 0.17337,2.03168 -0.47469,0.25405 -2.20402,-0.43323 -12.04777,-4.78806 -6.32156,-2.79658 -11.52543,-5.03922 -11.56428,-4.98366 -0.32756,0.46844 -2.55675,6.41821 -2.55675,6.82403 0,0.28807 0.77425,2.44278 1.72055,4.78824 4.30286,10.66487 5.57399,16.25597 5.3653,23.59938 -0.0959,3.37474 -0.21293,4.29831 -0.70382,5.55511 -1.92079,4.91762 -13.43765,9.96493 -24.94082,10.93042 l -2.02234,0.16974 -0.55565,1.52391 c -0.65528,1.79717 -1.98287,3.91049 -4.30072,6.84608 -0.92526,1.17186 -2.06867,2.77021 -2.54092,3.5519 -1.51035,2.5 -1.80636,4.45791 -2.85115,18.85865 -0.53145,7.32517 -1.0833,13.37474 -1.23696,13.55989 -0.40652,0.48983 -1.4777,0.4076 -1.76849,-0.13576 -0.16016,-0.29925 -0.14785,-1.93884 0.0339,-4.51249 l 0.28544,-4.04246 -1.09736,-2.05952 c -1.97968,-3.71545 -3.06132,-7.1956 -3.9148,-12.59569 -0.39046,-2.47052 -0.46484,-5.00995 -0.49209,-16.80104 -0.0274,-11.85914 -0.0999,-14.30896 -0.49537,-16.75103 -0.47675,-2.94365 -1.61617,-7.27979 -2.02067,-7.68978 -0.13041,-0.13218 -0.86748,-0.13218 -1.71876,0 l -1.49044,0.23143 -0.61875,1.52659 c -1.159043,2.85964 -2.834589,4.40494 -5.987165,5.52178 -1.436232,0.5088 -2.248239,0.60326 -5.269727,0.61302 -3.459007,0.0112 -3.626221,-0.0144 -5.291667,-0.80838 -0.945885,-0.45095 -2.338919,-1.31221 -3.095628,-1.91393 -1.258599,-1.00079 -3.683537,-3.67313 -4.24744,-4.68077 -0.127963,-0.22866 -0.939136,-0.58289 -1.802609,-0.78719 -1.894734,-0.44829 -1.878695,-0.46215 -2.83772,2.45191 -1.746644,5.30728 -2.057548,9.16667 -1.976525,24.5353 0.05592,10.60763 0.004,12.53367 -0.404275,14.99576 -0.61595,3.71449 -1.344157,6.46373 -2.436241,9.19764 l -0.891979,2.23298 0.415187,5.50217 c 0.449545,5.95749 0.400944,6.30374 -0.884796,6.30374 -0.410694,0 -0.719505,-0.21012 -0.874904,-0.59531 z m 48.409979,-21.23281 c 0.28264,-3.63802 0.69365,-7.30002 0.91336,-8.13776 0.60877,-2.32119 1.75036,-4.35593 4.44584,-7.92417 2.8434,-3.76404 3.12275,-4.19194 3.70603,-5.67679 l 0.43258,-1.10123 -1.24533,-0.14926 c -0.68493,-0.0821 -2.05353,-0.22597 -3.04135,-0.31974 -1.10526,-0.10491 -2.01744,-0.34978 -2.37173,-0.63666 -0.51238,-0.4149 -0.53936,-0.54597 -0.24524,-1.1915 0.315,-0.69134 0.3951,-0.71769 1.71028,-0.5626 9.84819,1.16129 17.9788,-0.14981 26.3009,-4.24115 6.07347,-2.98585 6.80939,-4.1565 6.79248,-10.80497 -0.0106,-4.18448 -0.44537,-7.01344 -1.80191,-11.72574 -0.86358,-2.99984 -2.98154,-8.69596 -4.62938,-12.45043 -1.03666,-2.36192 -1.01303,-3.35875 0.14503,-6.11862 1.34942,-3.21594 2.18121,-5.60711 2.37751,-6.83472 0.14519,-0.90793 0.0738,-1.16172 -0.48326,-1.7188 -1.41067,-1.41068 -6.7869,-1.88957 -10.94931,-0.97531 -1.91815,0.42131 -2.48163,1.02913 -2.48163,2.6769 0,1.15451 0.31118,1.93396 2.36386,5.92096 3.73292,7.25058 4.0623,8.93751 3.45154,17.67738 -0.27522,3.93844 -0.2851,5.51065 -0.045,7.15824 0.4296,2.94747 0.4551,2.92761 -3.51746,2.73873 -1.74846,-0.0831 -5.38168,-0.52315 -8.07382,-0.97782 -6.36001,-1.07412 -9.74059,-1.25834 -12.72713,-0.69356 -2.12243,0.40138 -7.28864,1.83474 -7.54813,2.09423 -0.0636,0.0636 0.18267,1.14519 0.54731,2.40348 0.6356,2.19333 1.19532,5.10268 1.63489,8.49799 0.11304,0.87313 0.21507,7.65969 0.22674,15.08125 0.0182,11.59711 0.0872,13.8958 0.49036,16.35416 0.51784,3.15739 1.47502,6.69129 2.37249,8.75925 l 0.58368,1.34493 0.0759,-0.92605 c 0.0418,-0.50932 0.30719,-3.9026 0.58982,-7.54062 z m -46.60941,1.12448 c 0.950544,-4.60578 1.115332,-7.82673 1.055325,-20.62743 -0.04826,-10.29579 0.01252,-12.69906 0.381415,-15.08408 0.499533,-3.22952 1.250077,-6.30009 2.046957,-8.37435 0.300419,-0.78199 0.510818,-1.4572 0.467553,-1.50046 -0.04327,-0.0433 -1.506892,-0.47253 -3.252507,-0.95391 -2.942756,-0.81152 -3.453169,-0.87389 -7.010299,-0.85671 -3.072392,0.0148 -4.8113,0.18838 -8.73125,0.87131 -2.692135,0.46902 -6.340149,0.92142 -8.106699,1.00533 -3.00162,0.14259 -3.23005,0.11869 -3.48889,-0.36496 -0.18086,-0.33793 -0.19319,-0.8788 -0.0356,-1.55858 0.33538,-1.44616 0.31325,-5.07548 -0.0601,-9.8543 -0.5117,-6.54999 0.0503,-9.09757 3.39795,-15.40241 2.80925,-5.29088 3.26249,-7.40136 1.79587,-8.36232 -0.79903,-0.52355 -4.27721,-1.13549 -6.52031,-1.14717 -3.16739,-0.0165 -6.34253,0.97709 -6.62952,2.07454 -0.24281,0.92851 0.28514,2.85919 1.77863,6.50434 0.98948,2.41504 1.46433,3.94032 1.46412,4.70297 -2.2e-4,0.7812 -0.49006,2.29949 -1.59099,4.93138 -2.0337,4.86179 -4.01807,10.7774 -4.80403,14.32129 -0.52602,2.37182 -0.61613,3.51334 -0.61613,7.80521 0,4.72644 0.0368,5.10176 0.61501,6.27577 0.68905,1.39905 1.99638,2.45889 5.07354,4.11309 7.55882,4.06343 17.166882,5.84473 25.801816,4.78356 2.632781,-0.32355 3.307334,-0.15971 3.298295,0.80112 -0.0099,1.05436 -0.566539,1.23717 -5.353761,1.7583 -1.004255,0.10932 -1.521354,0.2849 -1.521354,0.51658 0,0.74837 1.621128,3.36877 4.10193,6.63039 4.098748,5.38879 4.639191,6.94932 5.190728,14.98825 0.177927,2.59337 0.406535,4.71523 0.508016,4.71523 0.101484,0 0.436377,-1.22039 0.744215,-2.71198 z M 93.110033,245.3155 c 1.775942,-0.42155 2.965831,-1.09948 4.064752,-2.31585 1.287737,-1.42538 1.634606,-2.31907 1.120558,-2.88709 -0.670976,-0.74142 -0.996725,-1.94262 -1.175417,-4.33436 l -0.173434,-2.32133 -3.141674,1.88789 c -1.825839,1.09717 -3.553158,1.94307 -4.124129,2.01966 -1.07847,0.14465 -1.518766,-0.0394 -4.905031,-2.05067 -3.427304,-2.03563 -3.260682,-2.09705 -3.252197,1.19894 0.0077,2.99009 -0.258588,3.70879 -1.440238,3.88716 -0.448363,0.0677 -0.251709,0.3649 1.201245,1.81555 1.896798,1.8938 3.774972,3.05467 5.53444,3.42075 1.281399,0.26662 4.510371,0.10204 6.291125,-0.32065 z M 79.16369,235.85057 c -0.07254,-2.58365 -0.698122,-5.12198 -1.98882,-8.06979 -2.094018,-4.78251 -2.398734,-5.60946 -3.130143,-8.49462 -0.457893,-1.80625 -0.86801,-4.42065 -1.064437,-6.78555 l -0.319542,-3.84718 -5.055045,-0.17346 c -2.780273,-0.0954 -8.370043,-0.19707 -12.421708,-0.22591 l -7.36666,-0.0524 -2.2158,4.36563 c -3.18103,6.26738 -3.18131,6.26849 -3.04895,12.30312 0.0606,2.7649 0.12017,6.50138 0.13229,8.30331 l 0.022,3.27622 2.24896,-0.14817 c 1.23693,-0.0815 4.451615,-0.5324 7.14375,-1.002 3.737227,-0.6519 5.708216,-0.85803 8.334375,-0.87162 3.769654,-0.0195 4.797004,0.15345 10.31875,1.73708 4.201438,1.20497 6.838836,1.78501 7.805208,1.71659 0.648015,-0.0459 0.660326,-0.0872 0.60574,-2.0312 z m 27.17551,0.86194 c 7.94984,-2.22561 8.08537,-2.25109 12.03854,-2.26337 2.99341,-0.009 4.66877,0.15201 8.73125,0.84072 2.7649,0.46872 5.98875,0.92193 7.16412,1.00712 l 2.13703,0.15489 -0.0155,-2.74805 c -0.008,-1.51142 0.0878,-5.01023 0.21413,-7.77513 0.28983,-6.34526 0.17628,-6.84031 -3.07945,-13.42496 l -2.45159,-4.95829 -1.19062,0.11981 c -0.65484,0.0659 -5.29828,0.18627 -10.31875,0.2675 -5.02047,0.0812 -9.9318,0.21679 -10.91406,0.30127 l -1.78594,0.15359 v 1.1742 c 0,1.72453 -0.50501,6.05679 -0.93634,8.03251 -0.24289,1.11253 -1.31323,3.58829 -3.03127,7.01146 -1.46069,2.91041 -2.83241,6.00129 -3.048264,6.86861 -0.397666,1.59786 -0.533027,5.2895 -0.223523,6.09605 0.2365,0.61631 2.459497,0.3321 6.710227,-0.85793 z"
       id="path5345" /><path
       style="fill:#000000;stroke-width:0.264583"
       d="m -85.14289,317.18523 c -4.040463,-0.76555 -9.142701,-2.85527 -10.648884,-4.36145 -0.720392,-0.72039 -2.181278,-3.79134 -2.184885,-4.59288 -7.93e-4,-0.18037 -0.118885,-0.75058 -0.262384,-1.26713 l -0.260909,-0.93919 -3.507928,0.0132 c -4.10557,0.0154 -5.72036,-0.34637 -6.69001,-1.49873 -1.3135,-1.56101 -0.5219,-4.1935 2.1505,-7.15153 1.04089,-1.15214 3.43308,-4.74468 4.28991,-6.4425 l 0.54655,-1.08299 -0.64809,-3.94409 c -0.90833,-5.52785 -1.63808,-11.46459 -1.98087,-16.11494 -0.58559,-7.94433 -1.58126,-11.85501 -3.98711,-15.66016 -1.79443,-2.83809 -2.34818,-4.75719 -2.34818,-8.13788 0,-2.94927 0.50549,-5.41746 1.74708,-8.53053 1.04951,-2.63144 12.036267,-25.37724 13.317261,-27.5706 1.421622,-2.43415 3.506311,-4.66125 5.898065,-6.30096 1.058228,-0.72549 4.70226,-2.72955 8.097851,-4.45346 6.540469,-3.32055 6.953481,-3.43064 7.137083,-1.90246 0.07101,0.59105 -0.154355,0.81803 -1.720205,1.73253 -0.991055,0.57881 -3.647202,1.94917 -5.90255,3.04524 -4.865933,2.3648 -7.019118,3.74423 -8.991306,5.76025 -1.996244,2.04061 -2.450674,2.8593 -8.364892,15.06999 -5.851597,12.08139 -7.498687,15.6484 -7.586007,16.42854 -0.0515,0.46008 0.5703,0.81653 4.17283,2.39214 6.957612,3.04299 14.652515,6.03466 15.52182,6.03466 0.551254,0 0.09919,-1.00426 -1.349841,-2.99867 -3.37734,-4.64847 -4.132826,-7.65497 -3.38973,-13.48962 0.244308,-1.91827 0.863629,-5.38225 1.376272,-7.69776 0.63042,-2.84748 0.847421,-4.312 0.670505,-4.52517 -0.396383,-0.47762 -0.621425,-4.72074 -0.404104,-7.61938 0.22986,-3.06589 0.754838,-3.88183 1.993683,-3.09865 0.331058,0.20929 0.381217,0.95782 0.307062,4.58235 l -0.08863,4.3322 4.058565,0.57023 c 6.321116,0.8881 5.523709,1.08859 6.39022,-1.60664 0.748958,-2.32959 1.294471,-3.01036 2.149377,-2.6823 0.637868,0.24477 0.740077,1.15404 0.294029,2.6157 -0.535747,1.75559 -0.546775,1.71979 0.529743,1.71979 1.955308,0 3.555773,1.56102 3.557747,3.47005 0.0013,1.19238 -0.74883,2.18479 -2.206835,2.91986 -0.604707,0.30486 -1.135882,0.58601 -1.180388,0.62475 -0.04451,0.0387 1.073944,6.1856 2.485448,13.65967 2.350958,12.44858 2.625307,13.65704 3.26852,14.39733 1.172528,1.34948 1.484434,2.38451 1.101977,3.65678 -0.180441,0.60024 -0.321676,1.35658 -0.313857,1.68074 0.0078,0.32417 0.849209,5.35676 1.869755,11.18354 1.020545,5.82678 1.857327,11.27655 1.859515,12.11061 0.0033,1.2365 -0.179924,1.87644 -0.992187,3.46643 -0.547891,1.07248 -1.321427,2.26866 -1.718966,2.65817 l -0.722797,0.70821 2.667053,12.67752 c 1.734074,8.24271 2.801869,12.7761 3.052445,12.95933 0.52537,0.38415 0.91799,2.22604 0.600832,2.81865 -0.321903,0.60148 -1.943185,0.91112 -2.778316,0.53061 -0.590873,-0.26922 -0.642284,-0.44319 -0.654902,-2.21606 -0.0098,-1.37934 -0.740177,-5.36837 -2.580322,-14.09295 l -2.566634,-12.16905 -1.050308,-0.49455 c -2.240815,-1.05512 -5.173128,-3.70134 -5.742951,-5.18264 -0.1431,-0.37201 -1.436936,-7.43667 -2.875185,-15.69924 l -2.615004,-15.02287 -1.123971,-1.33296 c -1.319392,-1.56473 -1.490086,-1.41374 -1.524503,1.34849 -0.02747,2.20469 -0.552045,7.07681 -1.709237,15.875 -1.931456,14.68492 -1.897465,18.70446 0.271735,32.13417 0.374951,2.32135 0.781407,4.48282 0.90324,4.80326 0.360815,0.94901 2.332744,2.70307 5.016415,4.46217 3.996894,2.6199 4.702644,3.59468 3.868695,5.34349 -0.88184,1.84924 -4.755113,2.80373 -8.498903,2.09439 z m 5.612537,-2.58595 c 0.397423,-0.19048 0.725932,-0.46539 0.730025,-0.61091 0.0041,-0.14552 -1.163907,-1.05181 -2.595552,-2.01397 -1.431644,-0.96216 -3.138363,-2.19691 -3.792712,-2.74387 l -1.189723,-0.99449 -1.895829,0.552 c -1.042707,0.3036 -2.937627,0.69318 -4.210934,0.86574 -1.519015,0.20585 -2.315104,0.42833 -2.315104,0.647 0,1.15326 4.74082,3.40185 9.525,4.51774 1.692902,0.39486 4.703249,0.27997 5.744829,-0.21924 z m -12.32938,-7.36092 c 2.24131,-0.42103 4.235027,-1.05439 4.084702,-1.29763 -0.203206,-0.32879 -1.620431,-9.11862 -2.157903,-13.38361 -0.54761,-4.34547 -0.610761,-12.08737 -0.132725,-16.27187 0.174553,-1.52797 0.786162,-6.40954 1.35913,-10.84792 1.146043,-8.87761 1.690084,-14.82237 1.381914,-15.10022 -0.109739,-0.099 -1.211557,-0.50879 -2.448484,-0.91075 -3.013998,-0.97947 -5.137907,-1.82271 -12.116801,-4.81067 -3.24451,-1.38911 -5.95934,-2.46542 -6.03295,-2.3918 -0.43664,0.43663 -0.70075,3.82095 -0.43313,5.54996 0.28083,1.8143 0.57436,2.50197 2.90926,6.81556 2.02837,3.74728 2.7114,6.70121 3.36487,14.55209 0.55182,6.62966 1.00389,10.23954 2.120557,16.93333 0.49766,2.98318 1.209477,7.38849 1.581819,9.78958 0.372341,2.4011 1.116079,6.00274 1.652752,8.00365 l 0.975773,3.63802 h 1.233022 c 0.678159,0 1.874348,-0.12047 2.658194,-0.26772 z m -7.570658,-4.06456 c 0,-0.37489 -0.423105,-0.63833 -1.734629,-1.08005 -0.95405,-0.32131 -2.3428,-0.91522 -3.08611,-1.31978 -0.74332,-0.40456 -1.45533,-0.67139 -1.58225,-0.59294 -0.12692,0.0784 -0.50785,0.69741 -0.8465,1.37549 -0.43465,0.87031 -0.53305,1.31556 -0.33459,1.51402 0.46444,0.46444 2.14112,0.68144 4.93825,0.63911 2.395891,-0.0363 2.645829,-0.0869 2.645829,-0.53585 z m -1.119199,-6.18867 c -0.23165,-1.63504 -0.50415,-2.9728 -0.60557,-2.9728 -0.10141,0 -0.61984,0.68461 -1.15205,1.52135 -0.53221,0.83675 -1.1578,1.7875 -1.39021,2.11277 -0.41632,0.5827 -0.39408,0.60507 1.50804,1.51663 1.06183,0.50887 1.95992,0.89588 1.99578,0.86003 0.0359,-0.0358 -0.12435,-1.40294 -0.35599,-3.03798 z m 31.696326,-10.9198 c 0.530892,-0.28413 1.734431,-2.43469 2.140352,-3.82452 0.174522,-0.59755 -0.238138,-3.50267 -1.653987,-11.64411 -1.03759,-5.96635 -1.962438,-10.92923 -2.055217,-11.02861 -0.09278,-0.0994 -0.818965,0.0494 -1.613742,0.33073 -1.03157,0.36509 -2.148247,0.51143 -3.902604,0.51143 -2.236991,0 -2.457553,0.0451 -2.457553,0.50209 0,1.22421 3.692647,21.44807 4.010803,21.96632 0.195151,0.3179 1.004147,1.07778 1.797767,1.68864 2.416381,1.85992 2.783094,2.00704 3.734181,1.49803 z m -3.145877,-28.84353 c 1.19407,-0.34245 2.069793,-0.9915 2.069793,-1.53403 0,-1.14891 -2.135331,-2.13518 -4.655347,-2.15022 -0.6918,-0.004 -1.232662,-0.17385 -1.496171,-0.46949 -0.63586,-0.71339 -4.771147,-8.5182 -6.268321,-11.83064 -1.755521,-3.88401 -2.055505,-5.39658 -1.640104,-8.26964 0.372872,-2.57892 1.853224,-7.94734 2.850409,-10.33686 0.381857,-0.91503 0.619295,-1.73869 0.527638,-1.83034 -0.265626,-0.26563 -6.630469,-1.12852 -6.816218,-0.92408 -0.09234,0.10163 -0.538482,1.9112 -0.991412,4.02125 -2.314691,10.78338 -2.179936,13.95911 0.774295,18.24751 1.713484,2.48731 5.220081,6.75437 7.877506,9.58587 1.506964,1.60568 2.154643,2.51721 2.40691,3.38745 0.189828,0.65484 0.520361,1.53088 0.73452,1.94675 0.384723,0.74708 0.409845,0.75392 2.102038,0.57271 0.941964,-0.10088 2.077974,-0.28818 2.524464,-0.41624 z m -0.176208,-6.4027 c -0.07668,-0.32742 -1.160483,-6.01265 -2.408457,-12.63385 -1.247973,-6.6212 -2.309894,-12.07945 -2.359826,-12.12945 -0.04993,-0.05 -0.84363,0.3072 -1.763771,0.79375 l -1.672987,0.88466 -0.728398,2.77812 c -0.559446,2.13373 -0.708483,3.23986 -0.642535,4.76875 0.07973,1.84843 0.222398,2.27367 1.997255,5.95313 1.051266,2.17937 2.633734,5.29533 3.516593,6.92436 1.674378,3.0895 1.673733,3.08893 3.601188,3.2162 0.494525,0.0327 0.575778,-0.0653 0.460938,-0.55567 z m -4.229616,-27.78032 c 2.21931,-1.10374 2.775591,-1.49121 2.71516,-1.89121 -0.156356,-1.03496 -0.86546,-1.11657 -2.580304,-0.29695 -0.88406,0.42255 -1.771724,0.95358 -1.972585,1.18009 -0.389829,0.4396 -1.262751,2.3962 -1.069044,2.3962 0.06359,0 1.371634,-0.62466 2.906773,-1.38813 z"
       id="path5414" /><path
       style="fill:#000000;stroke-width:0.264583"
       d="m 219.70993,218.0482 c -1.0914,-0.0493 -5.02047,-0.21777 -8.73125,-0.37447 -14.41189,-0.6086 -33.22415,-2.01348 -34.0651,-2.54395 -0.70842,-0.44686 -0.80527,-1.70306 -0.17954,-2.32879 0.52087,-0.52087 0.56462,-0.52034 7.9186,0.0944 8.12755,0.67942 20.73062,1.46927 20.89066,1.30923 0.20176,-0.20176 1.39906,-7.76135 1.91142,-12.06841 0.33965,-2.85521 0.46279,-5.86389 0.45767,-11.18225 -0.007,-7.65295 -0.23541,-10.02484 -1.46963,-15.28524 -0.47553,-2.02673 -0.67163,-2.47382 -1.12866,-2.57309 -1.92549,-0.41828 -19.73815,-1.4511 -25.15938,-1.4588 -4.29404,-0.006 -4.9829,-0.21393 -5.11128,-1.54213 -0.167,-1.72781 -0.15246,-1.73086 7.36024,-1.54304 18.77986,0.46952 38.53588,2.7063 56.75313,6.42562 3.20146,0.65363 6.83006,1.3716 8.06355,1.5955 1.2335,0.22391 4.56637,0.98238 7.40639,1.6855 2.84001,0.70312 5.19919,1.24287 5.24261,1.19945 0.11452,-0.11453 -0.66201,-8.04481 -1.146,-11.70337 -1.94399,-14.69502 -6.41445,-29.88609 -12.94977,-44.00457 -2.25645,-4.8747 -5.60839,-11.14693 -7.4509,-13.94233 -1.78619,-2.70995 -3.01139,-3.76033 -7.20751,-6.17908 -4.11766,-2.37353 -6.05533,-3.837746 -7.24231,-5.472716 -1.32617,-1.82669 -1.53496,-2.29776 -2.31792,-5.22983 -0.80298,-3.00702 -0.73726,-2.9584 -3.58619,-2.6533 l -1.63684,0.17529 -0.1141,2.42963 c -0.12519,2.66583 -0.58061,3.87456 -2.12072,5.62865 -2.02192,2.302836 -4.42504,3.073096 -9.733,3.119646 -3.27996,0.0288 -3.67833,-0.0211 -4.8744,-0.60973 -1.67343,-0.82361 -3.12529,-2.284416 -4.01455,-4.039276 -0.63501,-1.25314 -0.79446,-2.21852 -1.60748,-9.73247 -0.54717,-5.05702 -0.84373,-8.91433 -0.75317,-9.79656 0.29599,-2.8835 2.38427,-5.73526 5.06967,-6.92313 1.4476,-0.64035 7.10765,-1.36268 8.97298,-1.14513 2.84366,0.33166 5.62176,2.35019 6.80021,4.94094 l 0.5932,1.30411 1.98437,-0.17894 c 1.09141,-0.0984 2.06154,-0.22351 2.15586,-0.27798 0.0943,-0.0545 0.25521,-0.9627 0.35755,-2.0183 0.47343,-4.88317 2.97768,-8.80532 6.74866,-10.56973 3.27618,-1.53289 9.5235,-2.46419 15.14995,-2.25842 4.05717,0.14838 6.4746,0.67108 8.98352,1.94244 2.78265,1.41008 5.17123,4.73044 5.44383,7.56748 l 0.12871,1.33954 2.54253,-0.17647 c 1.39839,-0.0971 3.17331,-0.24958 3.94428,-0.33894 1.39318,-0.16148 1.4007,-0.16729 1.22875,-0.95015 -0.0952,-0.43323 -0.17758,-1.78367 -0.18318,-3.00098 -0.009,-1.96465 0.0845,-2.40569 0.83288,-3.9258 0.92537,-1.87969 2.41231,-3.3544 4.19643,-4.16188 1.36417,-0.61742 7.10735,-1.37877 8.8818,-1.17743 1.60112,0.18168 3.74243,1.14909 5.0133,2.26493 0.53608,0.47068 1.33734,1.59244 1.78059,2.49281 0.76198,1.54781 0.85527,2.10362 1.71176,10.19867 0.97337,9.19962 0.96278,10.0802 -0.14877,12.37637 -0.73708,1.52261 -3.09641,3.6295 -4.66374,4.16474 -1.66615,0.56899 -6.10003,1.04106 -8.29976,0.88367 -2.23414,-0.15985 -4.11556,-1.15073 -5.772,-3.0399 -1.27087,-1.44941 -1.65478,-1.58534 -3.45864,-1.22457 -1.08436,0.21687 -1.10665,0.10274 1.3398,6.86107 3.88137,10.722276 7.49901,19.021006 17.23449,39.535146 9.34823,19.69815 11.55763,24.58088 15.18277,33.55352 6.36231,15.74746 8.27653,23.96864 7.00351,30.07877 -0.57941,2.78104 -2.20657,5.75266 -4.41658,8.06586 -7.58677,7.94098 -22.1563,12.25103 -47.46413,14.04114 -3.7359,0.26425 -28.31167,0.53607 -32.27917,0.35702 z m 33.60209,-3.5248 c 25.67286,-2.08716 40.00976,-6.76185 45.33863,-14.78313 3.65152,-5.49646 3.28036,-11.52897 -1.52339,-24.76004 -3.80463,-10.47917 -7.62509,-19.20556 -17.62175,-40.25022 -11.18207,-23.54017 -14.82056,-31.96188 -18.80392,-43.523956 l -1.77751,-5.15937 -0.8878,0.0669 c -2.11949,0.15974 -26.88249,2.73539 -27.5011,2.86044 -1.32199,0.26725 -1.81945,-0.51207 -2.10659,-3.30024 -0.43614,-4.23483 0.24047,-7.98039 1.94991,-10.79445 1.70104,-2.80021 1.81776,-3.69696 0.55602,-4.27185 -1.14549,-0.52192 -1.8083,0.0806 -4.9917,4.53773 -2.66921,3.7372 -3.14095,4.82604 -3.11642,7.1932 0.0221,2.12893 1.06135,7.56244 2.03764,10.65295 1.12877,3.5732 2.19518,4.666 7.56133,7.748546 4.0967,2.35332 5.4843,3.37064 6.89393,5.05428 3.43575,4.10363 10.38452,18.00425 14.33243,28.67123 4.81599,13.01245 8.43761,29.01878 9.46682,41.84015 l 0.34271,4.26931 1.54704,0.43012 c 1.70568,0.47422 2.26634,1.1615 1.95604,2.39782 -0.35059,1.39686 -1.05582,1.40371 -6.04757,0.0587 -18.457,-4.97318 -31.74496,-7.56792 -50.49578,-9.86031 l -1.21915,-0.14905 0.61364,2.97213 c 1.05106,5.09072 1.29639,7.95409 1.2789,14.92655 -0.0175,6.98534 -0.35663,11.03889 -1.56974,18.76398 -0.36377,2.31654 -0.6169,4.2564 -0.5625,4.3108 0.57588,0.57588 37.46855,0.65722 44.34988,0.0978 z M 209.19622,98.055944 c 1.25629,-0.32499 2.71165,-1.59074 3.4156,-2.9706 0.66118,-1.29601 0.61869,-2.50752 -0.42832,-12.21366 -0.65337,-6.05695 -0.77401,-6.71462 -1.431,-7.80116 -0.53008,-0.87664 -1.11496,-1.38985 -2.23921,-1.96481 l -1.52173,-0.77824 -3.23196,0.33078 c -3.67668,0.37629 -4.98385,0.84616 -6.19659,2.22741 -1.56292,1.78009 -1.58256,2.13445 -0.6297,11.35817 0.71452,6.91667 0.95092,8.4639 1.44501,9.45772 0.69298,1.39386 2.34509,2.65586 3.78278,2.88955 1.14236,0.18568 5.5425,-0.14903 7.03512,-0.53516 z m 9.36614,-10.98335 1.57589,-0.16471 -0.34154,-2.28269 c -0.18784,-1.25547 -0.41259,-3.19641 -0.49944,-4.31321 l -0.15791,-2.03052 -0.83919,0.1042 c -3.67661,0.45651 -3.39887,0.35975 -3.24728,1.13133 0.0766,0.38987 0.27103,2.1376 0.43208,3.88385 0.16104,1.74625 0.34037,3.32383 0.3985,3.50573 0.12008,0.37575 0.46674,0.39724 2.67889,0.16602 z m 60.22938,-0.87218 c 1.93757,-0.45546 3.5933,-2.05233 4.16516,-4.01709 0.19477,-0.66917 0.0526,-2.92929 -0.55578,-8.83664 -0.44961,-4.36563 -0.93422,-8.39073 -1.0769,-8.94468 -0.35069,-1.3615 -1.85775,-2.96406 -3.30846,-3.51809 -1.06544,-0.4069 -1.52625,-0.42242 -4.34681,-0.14641 -3.74811,0.36678 -4.98457,0.80787 -6.18025,2.20477 -1.36625,1.59615 -1.57016,2.83699 -1.0938,6.65602 0.22085,1.77057 0.64106,5.51571 0.93379,8.32253 0.55223,5.29492 0.76334,6.04764 2.03314,7.24923 1.53249,1.45016 2.06299,1.5903 5.38144,1.42153 1.67349,-0.0851 3.4953,-0.26113 4.04847,-0.39117 z m -35.73204,-1.74597 c 15.71071,-1.60217 21.14357,-2.19937 21.28377,-2.33956 0.14258,-0.14258 -0.66826,-8.1505 -0.84297,-8.32521 -0.0559,-0.0559 -1.56752,0.0313 -3.35913,0.19384 -5.41896,0.49155 -5.73407,0.54973 -5.90565,1.09035 -0.29813,0.9393 -3.00719,3.34325 -4.67912,4.15211 -2.42362,1.17253 -4.19613,1.53039 -7.35708,1.48533 -3.02932,-0.0432 -5.90289,-0.66117 -8.40877,-1.8084 -0.79462,-0.36379 -1.48532,-0.66143 -1.53488,-0.66143 -0.42785,0 -1.0455,5.11734 -0.78516,6.50509 0.17886,0.95341 0.18527,0.95741 1.28709,0.80186 0.60904,-0.086 5.24489,-0.57826 10.3019,-1.09398 z m 2.38901,-7.13147 c 3.14235,-0.66587 5.30033,-2.20837 6.43513,-4.59979 0.57651,-1.21491 0.5228,-2.65819 -0.15615,-4.19534 -1.12568,-2.54854 -3.36162,-3.97024 -7.47655,-4.75387 -4.3304,-0.82466 -13.30801,-0.003 -16.91215,1.54701 -1.69864,0.73074 -3.69986,2.89565 -4.39558,4.75513 -0.54619,1.45983 -1.07147,4.72578 -0.76006,4.72578 0.0883,0 0.84506,-0.98227 1.68172,-2.18282 3.9064,-5.60534 6.59166,-6.72416 9.60489,-4.00189 1.71105,1.54583 1.93935,3.22521 0.79351,5.83705 l -0.48589,1.10755 2.25954,0.81759 c 3.7003,1.33893 6.31081,1.60066 9.41159,0.9436 z"
       id="path5483" /><path
       style="fill:#000000;stroke-width:0.264583"
       d="m 22.901263,168.57264 c -2.23385,-1.2355 -3.57054,-4.42225 -3.1768,-7.57367 0.14988,-1.19964 0.35672,-1.65353 1.08567,-2.38248 0.49527,-0.49528 0.9005,-0.93867 0.9005,-0.98532 0,-0.0466 -0.36002,-0.16388 -0.80006,-0.26053 -0.44003,-0.0967 -2.00362,-0.64477 -3.47465,-1.21804 -8.6121199,-3.35625 -13.5726269,-7.6543 -15.7466949,-13.64379 -0.82492301,-2.27264 -0.85324901,-5.51745 -0.06652,-7.62018 0.695486,-1.85886 2.565371,-3.88986 4.477507,-4.86331 l 1.455208,-0.74083 0.18445,-3.41874 c 0.10144,-1.8803 0.31658,-5.62138 0.47809,-8.31352 1.24277,-20.71549 4.0764499,-33.90464 8.8796499,-41.32963 3.31134,-5.11881 5.78243,-6.92599 12.70807,-9.29376 1.905663,-0.65152 4.082643,-1.49765 4.837743,-1.88028 1.77579,-0.89986 3.37646,-2.55427 4.23942,-4.38174 0.60142,-1.27363 0.68717,-1.79588 0.68717,-4.18539 0,-2.35593 0.0654,-2.76686 0.47724,-2.99768 0.68694,-0.38501 1.65815,0.33137 1.86735,1.37739 0.50844,2.54221 -0.0508,5.67875 -1.39856,7.84415 -0.73208,1.17618 -0.73295,1.1833 -0.39888,3.26967 0.80124,5.00411 2.63652,7.95006 5.89403,9.46102 1.23177,0.57135 1.87054,0.69212 3.61298,0.68311 5.04222,-0.0261 6.88671,-1.76601 8.09906,-7.63992 0.55437,-2.68595 0.6327,-4.25947 0.2246,-4.51168 -0.57368,-0.35456 -1.59859,-2.30025 -1.97705,-3.75325 -0.40573,-1.55771 -0.52287,-4.91976 -0.22355,-6.41633 0.22303,-1.11515 1.22978,-1.63435 1.88962,-0.97452 0.3752,0.3752 0.45282,0.98207 0.45441,3.55265 0.002,3.59049 0.42901,4.89057 2.08197,6.34186 1.32625,1.16446 2.19581,1.49034 6.58687,2.46857 5.71517,1.27321 7.74867,2.25249 10.60169,5.10551 2.65247,2.65247 4.15591,5.25216 7.05713,12.20296 5.86921,14.06153 11.12857,24.07862 19.614794,37.35877 4.80983,7.52693 6.39057,10.51688 6.99395,13.22898 0.51104,2.29702 0.39518,4.98592 -0.30284,7.02828 -0.62185,1.81948 -2.35012,3.61601 -3.6783,3.82359 -0.88229,0.13789 -1.3807,0.51296 -3.11175,2.34169 -2.12185,2.24159 -5.622204,5.03998 -8.783864,7.02233 l -1.80014,1.12869 1.28774,0.57652 c 2.29598,1.0279 3.00754,2.2382 3.00754,5.11556 0,3.521 -1.475,6.2372 -3.71013,6.83221 -1.08181,0.28798 -22.0306,-0.0311 -29.36279,-0.44718 -5.64851,-0.32057 -8.77504,-0.72449 -14.68437,-1.89709 -4.80591,-0.95364 -3.42073,-1.0861 -11.1125,1.06268 -5.49793,1.53591 -12.941573,3.21255 -14.221833,3.20338 -0.6182,-0.004 -1.36213,-0.13974 -1.65317,-0.30071 z m 8.598963,-3.51177 c 2.69213,-0.64904 5.90682,-1.46326 7.14375,-1.80939 l 2.24895,-0.62931 -6.86368,-1.66701 c -6.137073,-1.49054 -7.057183,-1.65079 -8.691423,-1.51378 -2.20925,0.18521 -3.01411,0.6539 -3.24605,1.89024 -0.237,1.26331 0.3322,3.44487 1.15347,4.42089 0.63889,0.75927 0.76286,0.79908 2.02042,0.64867 0.73687,-0.0881 3.54242,-0.69127 6.234563,-1.34031 z m 62.69784,-0.9939 c 0.7181,-0.77079 1.06346,-2.10165 1.06526,-4.10495 10e-4,-1.3323 -0.10417,-1.74177 -0.55673,-2.16339 -1.52857,-1.42408 -5.89387,-1.39255 -13.46471,0.0973 -2.69213,0.52977 -5.91798,1.03199 -7.16854,1.11606 -7.74433,0.52056 -16.03665,-3.13972 -30.13771,-13.30299 -2.98317,-2.15011 -7.30886,-5.26781 -9.61263,-6.92823 -4.889993,-3.52442 -8.415503,-5.76782 -11.554033,-7.35223 l -2.24896,-1.13532 -0.0934,0.70713 c -0.14806,1.12144 0.46714,4.08802 1.59575,7.69493 1.41269,4.51481 1.79639,6.22932 1.801,8.04766 0.003,1.36825 -0.0868,1.63245 -0.80261,2.34823 -0.71488,0.71487 -0.93276,0.78959 -1.91747,0.65751 -0.84903,-0.11388 -1.34126,-0.39592 -2.08786,-1.19631 l -0.97691,-1.0473 -0.28218,1.31579 c -0.33912,1.58126 -0.6552,2.23237 -1.54887,3.19063 -0.3718,0.39867 -0.62514,0.77064 -0.56299,0.82661 0.0622,0.056 1.18457,0.52646 2.49426,1.04554 5.62989,2.23132 28.096463,7.83792 37.173963,9.27688 6.32327,1.00235 13.57805,1.3415 30.87979,1.44356 7.37335,0.0435 7.47076,0.037 8.00555,-0.53707 z m -13.33971,-8.51145 c 2.62671,-0.51483 5.57136,-1.01757 6.54367,-1.11718 1.63357,-0.16737 2.03445,-0.35091 5.27833,-2.41672 4.46257,-2.84191 6.71483,-4.57489 9.187314,-7.06911 l 1.97265,-1.99 -0.69926,-0.73274 c -0.3846,-0.40301 -1.13217,-1.64598 -1.66128,-2.76216 l -0.96201,-2.02941 -0.943614,0.64035 c -1.76595,1.1984 -3.35262,0.58697 -4.19402,-1.61619 -0.36713,-0.96131 -0.42798,-1.73024 -0.31388,-3.96591 0.0779,-1.52536 0.0448,-2.77338 -0.0734,-2.77338 -0.6042,0 -6.835,1.95035 -9.32014,2.91738 -7.96644,3.09991 -19.31519,9.63131 -28.75206,16.54729 -2.03755,1.49326 -2.25522,1.21781 3.02225,3.82456 8.07284,3.9875 11.45091,4.39826 20.91543,2.54322 z m -66.957313,-4.77919 c 0.7683,-0.32102 0.96421,-0.59022 1.29972,-1.78594 0.46477,-1.65638 0.84898,-4.27147 1.21296,-8.25591 0.14467,-1.58356 0.3982,-3.04208 0.56341,-3.24114 0.41788,-0.50352 1.13075,-0.45162 1.64805,0.11999 0.38399,0.42431 0.40473,0.81154 0.17345,3.23887 l -0.26268,2.75695 0.74579,1.19289 c 0.41018,0.6561 0.91356,1.45849 1.11863,1.78311 0.20506,0.32461 0.54172,0.65501 0.74814,0.73421 0.66173,0.25394 0.15153,-2.85522 -1.15079,-7.01296 -1.8634,-5.94898 -2.08436,-7.22799 -2.07981,-12.03854 0.006,-5.93741 0.63827,-9.20671 3.78367,-19.55277 2.11188,-6.94652 3.25754,-11.32974 4.23831,-16.21543 l 0.80663,-4.0182 -0.48052,-2.19951 c -0.56305,-2.57732 -0.50892,-3.06856 0.36223,-3.28721 0.88006,-0.22088 1.38564,0.2708 1.74469,1.69672 l 0.3013,1.19655 0.51705,-0.6382 c 0.93321,-1.15185 2.558273,-4.67858 3.240313,-7.03216 0.74637,-2.57558 1.08867,-6.11128 0.80863,-8.35262 l -0.18471,-1.47835 -3.013693,1.01246 c -3.99103,1.34081 -6.00233,2.44535 -7.94762,4.36455 -3.55696,3.50927 -5.8118,8.10047 -7.79656,15.875 -1.73322,6.78921 -3.07854,17.08951 -3.69761,28.31042 -0.5986,10.84997 -0.7805799,12.6942 -1.7100499,17.33021 -1.57726,7.86695 -1.18204,11.78128 1.4470699,14.33221 0.70026,0.67944 1.55149,1.2883 1.89163,1.35303 0.34013,0.0647 0.65201,0.13391 0.69306,0.15373 0.0411,0.0198 0.48175,-0.13407 0.97931,-0.34196 z m 42.857103,-4.39728 c 3.75506,-2.69337 8.97904,-6.1431 11.98695,-7.91576 1.05766,-0.62331 1.98923,-1.24044 2.07017,-1.3714 0.0809,-0.13097 -0.21755,-1.33651 -0.66332,-2.67899 -0.90308,-2.71974 -1.77722,-6.62394 -2.03622,-9.09446 -0.0938,-0.89458 -0.25658,-1.76576 -0.36177,-1.93596 -0.14142,-0.22882 -1.21851,-0.10189 -4.13343,0.48708 -5.7197,1.1557 -8.62832,1.45266 -14.12864,1.44245 -5.23275,-0.01 -10.34915,-0.50127 -15.875,-1.52523 -1.81901,-0.33707 -3.335943,-0.58901 -3.370953,-0.55987 -0.15845,0.13189 -1.39052,6.00921 -1.53068,7.30183 l -0.1565,1.44329 2.571663,1.68326 c 1.41442,0.92579 5.58503,3.87175 9.26802,6.54657 8.8784,6.44804 12.34484,8.83671 12.66533,8.72746 0.14552,-0.0496 1.80799,-1.19723 3.69438,-2.55027 z M 6.3651801,135.60422 c 0.332923,-1.64032 0.517093,-3.06907 0.409253,-3.175 -0.375603,-0.36898 -2.693221,2.48233 -3.048172,3.75009 -0.57386,2.04964 -0.246888,4.8524 0.812355,6.96338 l 0.900144,1.79392 0.160552,-3.175 c 0.0883,-1.74625 0.432943,-4.51708 0.765868,-6.15739 z m 100.7861499,5.77107 c 0.70132,-0.37533 1.60685,-2.70367 1.78232,-4.5828 0.32099,-3.43739 -0.84298,-6.07377 -6.90887,-15.64851 -4.454774,-7.03164 -5.921594,-9.45274 -8.347534,-13.7782 -2.49627,-4.45088 -7.93836,-15.61115 -10.06347,-20.6375 -3.56971,-8.44315 -4.08423,-9.52654 -5.61643,-11.82626 -2.67144,-4.00965 -5.71424,-6.07163 -10.48197,-7.10321 -1.36495,-0.29532 -2.5105,-0.50279 -2.54567,-0.46104 -0.12276,0.14574 0.93347,4.86109 1.73189,7.73175 0.4426,1.59132 1.29925,4.15117 1.90367,5.68854 l 1.09894,2.79522 0.27874,-0.92604 c 0.1533,-0.50933 0.37506,-1.07487 0.49279,-1.25678 0.31061,-0.47993 1.09159,-0.40537 1.59636,0.1524 0.37956,0.41941 0.40237,0.75806 0.17296,2.56749 l -0.26427,2.08436 1.33636,3.98095 c 3.48175,10.37189 8.43034,17.9989 18.41692,28.38504 6.16083,6.40734 6.04736,6.2424 6.03206,8.76786 -0.007,1.1097 -0.11286,3.33345 -0.23586,4.94167 -0.3217,4.20625 0.44596,5.35032 1.58637,2.3642 0.3608,-0.94474 0.39211,-1.42964 0.1738,-2.69114 -0.3089,-1.78492 -0.0707,-2.46481 0.863474,-2.46481 0.72012,0 1.4609,0.88471 1.4609,1.74474 0,1.08957 1.32092,5.76591 2.09736,7.42513 1.20717,2.57967 2.22808,3.39509 3.43916,2.74694 z m -29.953724,-7.52034 c 5.1223,-2.55793 10.55851,-4.69259 14.64266,-5.74981 1.81074,-0.46872 3.40416,-0.95009 3.54095,-1.06971 0.54199,-0.47395 -0.76454,-2.13914 -5.57229,-7.10195 -8.47982,-8.7533 -13.46928,-15.78416 -16.71082,-23.54791 -0.57721,-1.38245 -1.16632,-2.87073 -1.30915,-3.30729 -0.29133,-0.89048 -0.18894,-1.782 -1.13945,9.92187 -1.04909,12.91774 -0.95548,18.45693 0.42875,25.36965 0.57742,2.88359 1.87531,7.43868 2.11951,7.43868 0.0483,0 1.84824,-0.87909 3.99984,-1.95353 z m -49.814173,-8.89438 c 0.52996,-2.54662 1.14778,-5.7613 1.37294,-7.14375 0.54167,-3.3258 0.79297,-14.49936 0.39295,-17.47175 -0.46255,-3.43703 -0.86208,-5.54726 -1.0497,-5.54432 -0.0942,0.002 -0.57124,1.68078 -1.06008,3.73179 -0.48884,2.05101 -1.76095,6.62666 -2.82691,10.16812 -2.76743,9.19423 -3.33762,11.69653 -3.96017,17.37917 l -0.1661,1.51614 1.14287,0.45099 c 0.62857,0.24805 1.9763,0.88989 2.99494,1.42633 1.59657,0.84078 1.87579,0.91616 2.02389,0.54641 0.0945,-0.23591 0.6054,-2.51252 1.13537,-5.05913 z m 31.368873,-2.66129 c 1.96453,-0.28692 4.72468,-0.78892 6.13366,-1.11555 l 2.56178,-0.59389 0.1174,-6.14901 c 0.0646,-3.38196 0.0406,-6.14901 -0.0532,-6.14901 -0.0939,0 -2.25199,0.34776 -4.79585,0.77281 -9.66226,1.61445 -18.76456,1.74606 -27.84065,0.40255 -1.41787,-0.20989 -2.67941,-0.38161 -2.80344,-0.38161 -0.12402,0 -0.30352,1.45851 -0.39889,3.24114 -0.0954,1.78263 -0.34734,4.37082 -0.55993,5.75153 -0.21258,1.38072 -0.30175,2.59194 -0.19815,2.69161 0.45039,0.43332 8.86706,1.62461 15.4019,2.17997 2.38084,0.20234 8.94807,-0.14122 12.43542,-0.65054 z m 0.13229,-15.05586 c 3.79344,-0.51245 8.79743,-1.44313 9.03464,-1.68034 0.21402,-0.21401 0.89275,-8.80587 1.06252,-13.45006 l 0.17069,-4.66942 -1.20218,-2.34204 c -2.17724,-4.24161 -4.09231,-10.19387 -5.12564,-15.93108 -0.42318,-2.34953 -0.48816,-2.49447 -1.267,-2.82617 -0.94156,-0.401 -0.75062,-0.79049 -1.75646,3.58293 -1.27388,5.53884 -3.4283,7.76468 -8.23284,8.50577 -2.51317,0.38765 -4.96275,0.0393 -7.01085,-0.99692 -2.95763,-1.49642 -5.6591,-5.32872 -6.43764,-9.13242 -0.18954,-0.92605 -0.42931,-1.77933 -0.53281,-1.89619 -0.1035,-0.11685 -0.61942,0.042 -1.14649,0.35295 l -0.95831,0.56542 0.15723,3.21892 c 0.31348,6.41757 -1.4656,12.16141 -5.338273,17.23488 l -0.93647,1.22685 0.80494,3.62339 c 1.098433,4.94446 1.591743,8.45695 1.593593,11.34683 7.9e-4,1.33748 0.0909,2.48692 0.2,2.55431 0.3187,0.19677 5.77521,0.9516 8.79739,1.217 4.27043,0.375 13.51855,0.11751 18.12396,-0.50461 z"
       id="path5552" /></g></svg>
