<svg xmlns="http://www.w3.org/2000/svg" width="295.77" height="435.084" viewBox="0 0 78.256 115.116"><path d="M61.565 140.886c-3.088-1.27-5.346-3.212-7.595-6.53-.444-.655-1.871-2.392-3.172-3.86-2.465-2.782-3.076-3.876-3.387-6.072-.102-.722-.46-2.39-.797-3.706-.877-3.44-1.15-5.761-1.448-12.378-.324-7.157-.655-10.425-1.372-13.54-1.239-5.381-2.853-8.92-7.92-17.358-4.79-7.98-6.683-12.392-7.875-18.36-1.281-6.417-1.341-10.122-.31-19.05.847-7.33.803-7.144 1.706-7.144 1.482 0 1.496.496.3 10.319-.45 3.693-.514 8.505-.145 10.817.88 5.508 1.195 6.954 2.115 9.716 1.285 3.86 2.708 6.695 6.622 13.201 3.65 6.067 4.753 8.197 6.096 11.774 1.907 5.077 2.704 9.944 3.035 18.521.303 7.874 1.183 13.911 2.142 14.708.223.184 1.489.37 2.959.434 2.299.1 2.695.047 3.76-.504l1.19-.615-.088-3.572c-.145-5.85.479-8.402 3.094-12.648 2.17-3.523 2.592-4.899 2.184-7.114-.173-.94-.773-2.862-1.333-4.27-1.984-4.985-2.84-8.7-3.477-15.073-.373-3.742.577-1.832-7.788-15.664-2.596-4.292-5.167-8.77-5.714-9.95-2.205-4.76-3.675-10.961-3.677-15.506-.001-2.036.06-2.34.528-2.59.347-.185.693-.195 1.003-.029.392.21.53.866.794 3.78.53 5.86 2.015 10.874 4.623 15.616.616 1.12 3.502 5.972 6.412 10.78l5.292 8.744.794-.158c1.141-.227 2.785-1.187 3.348-1.955.478-.653.47-.702-.591-3.705-3.295-9.32-5.847-20.527-7.006-30.76-.48-4.247-.4-4.694.847-4.694.89 0 1.03.493 1.676 5.953.66 5.566 1.728 11.275 3.219 17.198 1.119 4.446 4.381 14.676 5.4 16.934.923 2.044 1.271 4.333 1.1 7.226-.186 3.148-.734 4.805-1.94 5.863-1.234 1.083-2.495 1.093-3.56.028-.583-.583-.774-1.022-.777-1.786-.002-.557-.3-1.608-.664-2.336l-.662-1.322.144 1.573c.319 3.485.805 5.252 3.571 12.96.771 2.148.839 2.582.742 4.763-.116 2.601-.144 2.671-3.213 7.936-1.28 2.197-2.143 5.147-1.984 6.786l.085.88.95-.837c1.788-1.575 5.404-9.374 7.118-15.353 1.973-6.883 2.501-11.633 2.301-20.693-.224-10.18-1.067-19.42-2.33-25.56l-.55-2.673.654-1.824c1.69-4.711 3.403-13.019 3.783-18.362.205-2.864.415-3.44 1.26-3.44.942 0 1.234.517 1.234 2.183 0 1.303.165 1.848 1.043 3.453.574 1.048 1.54 3.334 2.146 5.08 1.908 5.493 5.276 11.303 7.011 12.094.834.38 1.038.158.715-.77-.154-.44-.165-.996-.029-1.366.203-.548.349-.603 1.22-.458 1.964.326 2.017.317 2.277-.407.385-1.073-.495-2.225-4.29-5.618-3.62-3.237-4.502-4.315-5.472-6.693-1-2.449-1.876-6.382-1.54-6.916.315-.505 1.357-.746 1.707-.397.126.127.542 1.476.924 3 1.126 4.492 1.47 5.028 5.942 9.272 2.177 2.065 4.218 4.177 4.537 4.693.725 1.172.777 3.125.11 4.142-.468.714-.467.717.515 1.684.541.534 1.28 1.609 1.642 2.39.551 1.187.638 1.691.527 3.07-.158 1.969-.88 3.51-2.97 6.335-2.923 3.953-2.864 3.685-3.108 14.138-.117 4.999-.182 13.902-.144 19.785l.07 10.697 2.91 1.176 2.91 1.176 3.043-.683c3.625-.813 6.006-.912 6.956-.29.955.626 2.304 2.739 2.304 3.608 0 1.015-1.088 2.142-2.068 2.142-.424 0-1.096-.256-1.492-.568-.602-.473-.703-.725-.608-1.521.063-.525.213-1.181.333-1.46.205-.47.13-.492-1.081-.332-.716.095-2.529.428-4.028.741l-2.727.569-.678 1.338c-.373.737-.918 1.663-1.21 2.058l-.531.719 1.023.881c2.667 2.297 3.585 3.303 4.2 4.603.366.774.785 1.481.93 1.57.339.21.342 1.61.005 2.24-.405.757-1.615 1.069-2.577.664-1.044-.438-1.388-1.68-.74-2.668.541-.827.318-1.235-1.765-3.222-2.936-2.802-3.61-3.183-8.599-4.86-4.8-1.611-7.626-2.31-9.416-2.33l-.999-.01.42.813c.537 1.038.301 2.183-.595 2.888-.884.696-1.472.672-2.363-.095-.99-.851-.969-2.055.066-3.755 1.335-2.192 2.43-2.49 6.663-1.813.986.157 1.068.115 1.662-.855.344-.56 1.13-1.562 1.747-2.225.838-.9 1.084-1.352.971-1.782l-.15-.576-.668.525c-.896.705-1.806.662-2.592-.124-.89-.89-.837-1.95.16-3.217 2.01-2.555 3.622-1.912 5.18 2.064l.757 1.93.07-4.893c.559-38.875.265-35.105 3.048-39.168 2.846-4.156 3.14-4.67 3.287-5.765.251-1.875-.11-2.903-1.515-4.307C88.04 49.675 87.5 49.4 87.5 50.04c0 .508-1.075 1.433-1.904 1.64-1.51.374-3.406-.931-5.58-3.843-.497-.665-1.125-1.075-2.227-1.455-1.206-.416-1.552-.66-1.62-1.14-.106-.745.375-1.374 1.05-1.374.493 0 .493-.018-.002-.992-.277-.546-1.007-2.42-1.622-4.167s-1.275-3.473-1.466-3.836c-.417-.796-.43-.762-1.03 2.645-.553 3.143-1.77 7.985-2.653 10.565l-.674 1.966.514 2.664c1.758 9.113 2.902 27.853 2.147 35.175-.856 8.303-3.69 17.607-7.455 24.466l-1.069 1.946.617.659c.747.798 3.898 2.76 8.653 5.39 2.247 1.243 3.78 2.274 4.2 2.824.79 1.036 1.066 2.903.597 4.036-.714 1.725-3.376 3.178-5.822 3.178-1.131 0-4.043-.75-6.047-1.56l-1.417-.57.802.999c.44.55 1.401 1.703 2.135 2.564 1.785 2.095 2.272 3.15 2.275 4.936.008 3.857-4.08 5.881-8.337 4.13m4.345-1.872c1.694-.707 2.226-2.412 1.253-4.009-.27-.443-1.193-1.596-2.05-2.562s-2.63-3.372-3.939-5.347c-1.644-2.48-2.504-3.553-2.778-3.47-.218.067-1.111.38-1.985.694-1.365.493-1.944.552-4.138.422l-2.551-.15.29.947c.17.553 1.164 1.898 2.385 3.229 1.152 1.254 2.73 3.183 3.508 4.286 2.316 3.285 4.49 5.04 7.386 5.958 1.383.439 1.574.439 2.62.002m8.2-11.262c1.702-.647 2.28-2.34 1.153-3.375-.327-.3-2.084-1.378-3.903-2.393-4.888-2.73-6.07-3.445-7.616-4.603l-1.398-1.048-1.322.611-1.323.61.163 1.72c.295 3.116 1.9 4.954 5.996 6.874 3.59 1.683 6.537 2.255 8.25 1.604m16.102-15.98c.4-.633.728-1.335.728-1.558 0-.438-.94-.875-4.482-2.084-3.115-1.063-3.496-1.024-4.634.467-.516.676-.939 1.368-.939 1.539 0 .303 7.025 2.706 8.07 2.76q.53.028 1.257-1.124m-25.016-28.68c.64-1.504.78-5.956.242-7.803l-.43-1.482-1.505.906c-.827.498-1.72.905-1.983.905s-.478.125-.478.278c0 .152.663 1.551 1.473 3.109.81 1.557 1.54 3.337 1.622 3.956.184 1.387.507 1.427 1.059.132" style="fill:currentColor;stroke-width:.264583" transform="translate(-26.971 -26.406)"/></svg>