<?xml version="1.0" encoding="UTF-8" standalone="no"?>
<!-- Created with Inkscape (http://www.inkscape.org/) -->

<svg
   width="166.39072mm"
   height="105.19563mm"
   viewBox="0 0 166.39072 105.19563"
   version="1.1"
   id="svg5364"
   inkscape:version="1.2.2 (b0a8486541, 2022-12-01)"
   xmlns:inkscape="http://www.inkscape.org/namespaces/inkscape"
   xmlns:sodipodi="http://sodipodi.sourceforge.net/DTD/sodipodi-0.dtd"
   xmlns="http://www.w3.org/2000/svg"
   xmlns:svg="http://www.w3.org/2000/svg">
  <sodipodi:namedview
     id="namedview5366"
     pagecolor="#ffffff"
     bordercolor="#000000"
     borderopacity="0.25"
     inkscape:showpageshadow="2"
     inkscape:pageopacity="0.0"
     inkscape:pagecheckerboard="0"
     inkscape:deskcolor="#d1d1d1"
     inkscape:document-units="mm"
     showgrid="false"
     inkscape:zoom="0.62092452"
     inkscape:cx="742.44128"
     inkscape:cy="439.66696"
     inkscape:window-width="1534"
     inkscape:window-height="831"
     inkscape:window-x="66"
     inkscape:window-y="32"
     inkscape:window-maximized="1"
     inkscape:current-layer="layer1" />
  <defs
     id="defs5361" />
  <g
     inkscape:label="Layer 1"
     inkscape:groupmode="layer"
     id="layer1"
     transform="translate(91.717594,-32.198455)">
    <path
       style="fill:#000000;stroke-width:0.264583"
       d="m -33.006751,136.79877 c -0.132091,-0.32742 -0.669523,-6.56932 -1.194292,-13.87089 -0.540885,-7.52581 -1.121016,-13.91632 -1.339456,-14.75497 -0.576937,-2.21502 -1.434457,-3.71888 -4.256513,-7.46481 -2.414196,-3.20454 -4.335309,-6.54158 -4.335309,-7.53057 0,-0.36425 -0.387858,-0.47411 -2.182813,-0.61834 -6.940533,-0.55766 -12.650603,-2.18389 -18.723073,-5.33232 -6.21914,-3.22448 -7.39397,-5.51123 -7.05365,-13.72966 0.26002,-6.27938 1.79921,-12.18786 5.57094,-21.38523 1.43644,-3.50277 1.67231,-4.29296 1.48078,-4.96081 -0.21337,-0.74397 -2.35343,-6.10749 -2.50327,-6.27382 -0.0377,-0.0419 -5.21721,2.19426 -11.51,4.96918 -7.40151,3.26382 -11.61738,4.98944 -11.93976,4.88712 -0.57851,-0.18361 -0.95611,-1.35969 -0.56281,-1.75298 0.14763,-0.14764 5.43124,-2.55164 11.74135,-5.34223 l 11.47293,-5.07379 0.16259,-1.69796 c 0.1448,-1.51216 0.26585,-1.79259 1.10624,-2.56275 1.49641,-1.37135 4.14542,-2.0631 7.8593,-2.05234 6.48834,0.0188 9.524996,1.55386 9.524996,4.81495 v 1.03416 l 5.357812,0.16799 c 2.946797,0.0924 8.401886,0.2449 12.12242,0.33891 l 6.76461,0.17092 0.246848,-1.55837 c 0.246727,-1.55758 0.247317,-1.55836 1.172893,-1.55836 h 0.926041 l 0.17507,5.42396 c 0.247914,7.68087 1.05696,11.54117 3.529578,16.84108 0.621298,1.33171 1.391076,3.20695 1.710624,4.16719 0.477846,1.43592 0.682858,1.74593 1.154737,1.7461 0.736939,2.6e-4 3.311573,1.21945 5.518264,2.6131 0.949984,0.59997 1.952503,1.09013 2.227818,1.08924 0.275317,-7.9e-4 1.522889,-0.62596 2.772381,-1.38906 1.249492,-0.76309 3.001446,-1.73474 3.89323,-2.15922 1.566071,-0.74543 1.639853,-0.82634 2.161214,-2.37018 0.296884,-0.87912 1.480426,-3.32979 2.630099,-5.44593 1.14966,-2.11615 2.28618,-4.43486 2.52558,-5.1527 0.71129,-2.13277 1.19243,-6.37223 1.1976,-10.55233 0.003,-2.18603 0.126,-4.14638 0.27874,-4.43177 0.30616,-0.57206 1.30379,-0.68035 1.78986,-0.19427 0.17462,0.17462 0.3175,0.84543 0.3175,1.49068 v 1.17318 l 4.03489,-0.16568 c 2.2192,-0.0911 7.57701,-0.2432 11.90625,-0.33793 l 7.87136,-0.17224 5.3e-4,-0.82203 c 7.9e-4,-1.82021 1.52079,-3.52934 3.66504,-4.12139 2.15772,-0.59578 6.25791,-0.87116 8.49274,-0.57039 4.38276,0.58982 6.39618,2.10254 6.49387,4.87896 l 0.0471,1.33987 10.95717,4.82316 c 6.02644,2.65273 11.28459,5.00591 11.68477,5.22929 0.89946,0.50208 0.99257,1.59326 0.17337,2.03168 -0.47469,0.25405 -2.20402,-0.43323 -12.04777,-4.78806 -6.32156,-2.79658 -11.52543,-5.03922 -11.56428,-4.98366 -0.32756,0.46844 -2.55675,6.41821 -2.55675,6.82403 0,0.28807 0.77425,2.44278 1.72055,4.78824 4.30286,10.66487 5.57399,16.25597 5.3653,23.59938 -0.0959,3.37474 -0.21293,4.29831 -0.70382,5.55511 -1.92079,4.91762 -13.43765,9.96493 -24.94082,10.93042 l -2.02234,0.16974 -0.55565,1.52391 c -0.65528,1.79717 -1.98287,3.91049 -4.30072,6.84608 -0.92526,1.17186 -2.06867,2.77021 -2.54092,3.5519 -1.51035,2.5 -1.80636,4.45791 -2.85115,18.85865 -0.53145,7.32517 -1.0833,13.37474 -1.23696,13.55989 -0.40652,0.48983 -1.4777,0.4076 -1.76849,-0.13576 -0.16016,-0.29925 -0.14785,-1.93884 0.0339,-4.51249 l 0.28544,-4.04246 -1.09736,-2.05952 c -1.97968,-3.71545 -3.06132,-7.1956 -3.9148,-12.59569 -0.39046,-2.47052 -0.46484,-5.00995 -0.49209,-16.80104 -0.0274,-11.85914 -0.0999,-14.30896 -0.49537,-16.75103 -0.47675,-2.94365 -1.61617,-7.27979 -2.02067,-7.68978 -0.13041,-0.13218 -0.86748,-0.13218 -1.71876,0 l -1.49044,0.23143 -0.61875,1.52659 c -1.159043,2.85964 -2.834589,4.40494 -5.987165,5.52178 -1.436232,0.5088 -2.248239,0.60326 -5.269727,0.61302 -3.459007,0.0112 -3.626221,-0.0144 -5.291667,-0.80838 -0.945885,-0.45095 -2.338919,-1.31221 -3.095628,-1.91393 -1.258599,-1.00079 -3.683537,-3.67313 -4.24744,-4.68077 -0.127963,-0.22866 -0.939136,-0.58289 -1.802609,-0.78719 -1.894734,-0.44829 -1.878695,-0.46215 -2.83772,2.45191 -1.746644,5.30728 -2.057548,9.16667 -1.976525,24.5353 0.05592,10.60763 0.004,12.53367 -0.404275,14.99576 -0.61595,3.71449 -1.344157,6.46373 -2.436241,9.19764 l -0.891979,2.23298 0.415187,5.50217 c 0.449545,5.95749 0.400944,6.30374 -0.884796,6.30374 -0.410694,0 -0.719505,-0.21012 -0.874904,-0.59531 z m 48.409979,-21.23281 c 0.28264,-3.63802 0.69365,-7.30002 0.91336,-8.13776 0.60877,-2.32119 1.75036,-4.35593 4.44584,-7.92417 2.8434,-3.76404 3.12275,-4.19194 3.70603,-5.67679 l 0.43258,-1.10123 -1.24533,-0.14926 c -0.68493,-0.0821 -2.05353,-0.22597 -3.04135,-0.31974 -1.10526,-0.10491 -2.01744,-0.34978 -2.37173,-0.63666 -0.51238,-0.4149 -0.53936,-0.54597 -0.24524,-1.1915 0.315,-0.69134 0.3951,-0.71769 1.71028,-0.5626 9.84819,1.16129 17.9788,-0.14981 26.3009,-4.24115 6.07347,-2.98585 6.80939,-4.1565 6.79248,-10.80497 -0.0106,-4.18448 -0.44537,-7.01344 -1.80191,-11.72574 -0.86358,-2.99984 -2.98154,-8.69596 -4.62938,-12.45043 -1.03666,-2.36192 -1.01303,-3.35875 0.14503,-6.11862 1.34942,-3.21594 2.18121,-5.60711 2.37751,-6.83472 0.14519,-0.90793 0.0738,-1.16172 -0.48326,-1.7188 -1.41067,-1.41068 -6.7869,-1.88957 -10.94931,-0.97531 -1.91815,0.42131 -2.48163,1.02913 -2.48163,2.6769 0,1.15451 0.31118,1.93396 2.36386,5.92096 3.73292,7.25058 4.0623,8.93751 3.45154,17.67738 -0.27522,3.93844 -0.2851,5.51065 -0.045,7.15824 0.4296,2.94747 0.4551,2.92761 -3.51746,2.73873 -1.74846,-0.0831 -5.38168,-0.52315 -8.07382,-0.97782 -6.36001,-1.07412 -9.74059,-1.25834 -12.72713,-0.69356 -2.12243,0.40138 -7.28864,1.83474 -7.54813,2.09423 -0.0636,0.0636 0.18267,1.14519 0.54731,2.40348 0.6356,2.19333 1.19532,5.10268 1.63489,8.49799 0.11304,0.87313 0.21507,7.65969 0.22674,15.08125 0.0182,11.59711 0.0872,13.8958 0.49036,16.35416 0.51784,3.15739 1.47502,6.69129 2.37249,8.75925 l 0.58368,1.34493 0.0759,-0.92605 c 0.0418,-0.50932 0.30719,-3.9026 0.58982,-7.54062 z m -46.60941,1.12448 c 0.950544,-4.60578 1.115332,-7.82673 1.055325,-20.62743 -0.04826,-10.29579 0.01252,-12.69906 0.381415,-15.08408 0.499533,-3.22952 1.250077,-6.30009 2.046957,-8.37435 0.300419,-0.78199 0.510818,-1.4572 0.467553,-1.50046 -0.04327,-0.0433 -1.506892,-0.47253 -3.252507,-0.95391 -2.942756,-0.81152 -3.453169,-0.87389 -7.010299,-0.85671 -3.072392,0.0148 -4.8113,0.18838 -8.73125,0.87131 -2.692135,0.46902 -6.340149,0.92142 -8.106699,1.00533 -3.00162,0.14259 -3.23005,0.11869 -3.48889,-0.36496 -0.18086,-0.33793 -0.19319,-0.8788 -0.0356,-1.55858 0.33538,-1.44616 0.31325,-5.07548 -0.0601,-9.8543 -0.5117,-6.54999 0.0503,-9.09757 3.39795,-15.40241 2.80925,-5.29088 3.26249,-7.40136 1.79587,-8.36232 -0.79903,-0.52355 -4.27721,-1.13549 -6.52031,-1.14717 -3.16739,-0.0165 -6.34253,0.97709 -6.62952,2.07454 -0.24281,0.92851 0.28514,2.85919 1.77863,6.50434 0.98948,2.41504 1.46433,3.94032 1.46412,4.70297 -2.2e-4,0.7812 -0.49006,2.29949 -1.59099,4.93138 -2.0337,4.86179 -4.01807,10.7774 -4.80403,14.32129 -0.52602,2.37182 -0.61613,3.51334 -0.61613,7.80521 0,4.72644 0.0368,5.10176 0.61501,6.27577 0.68905,1.39905 1.99638,2.45889 5.07354,4.11309 7.55882,4.06343 17.166882,5.84473 25.801816,4.78356 2.632781,-0.32355 3.307334,-0.15971 3.298295,0.80112 -0.0099,1.05436 -0.566539,1.23717 -5.353761,1.7583 -1.004255,0.10932 -1.521354,0.2849 -1.521354,0.51658 0,0.74837 1.621128,3.36877 4.10193,6.63039 4.098748,5.38879 4.639191,6.94932 5.190728,14.98825 0.177927,2.59337 0.406535,4.71523 0.508016,4.71523 0.101484,0 0.436377,-1.22039 0.744215,-2.71198 z M -4.973989,77.80277 c 1.775942,-0.42155 2.965831,-1.09948 4.064752,-2.31585 1.287737,-1.42538 1.634606,-2.31907 1.120558,-2.88709 -0.670976,-0.74142 -0.996725,-1.94262 -1.175417,-4.33436 l -0.173434,-2.32133 -3.141674,1.88789 c -1.825839,1.09717 -3.553158,1.94307 -4.124129,2.01966 -1.07847,0.14465 -1.518766,-0.0394 -4.905031,-2.05067 -3.427304,-2.03563 -3.260682,-2.09705 -3.252197,1.19894 0.0077,2.99009 -0.258588,3.70879 -1.440238,3.88716 -0.448363,0.0677 -0.251709,0.3649 1.201245,1.81555 1.896798,1.8938 3.774972,3.05467 5.53444,3.42075 1.281399,0.26662 4.510371,0.10204 6.291125,-0.32065 z m -13.946343,-9.46493 c -0.07254,-2.58365 -0.698122,-5.12198 -1.98882,-8.06979 -2.094018,-4.78251 -2.398734,-5.60946 -3.130143,-8.49462 -0.457893,-1.80625 -0.86801,-4.42065 -1.064437,-6.78555 l -0.319542,-3.84718 -5.055045,-0.17346 c -2.780273,-0.0954 -8.370043,-0.19707 -12.421708,-0.22591 l -7.36666,-0.0524 -2.2158,4.36563 c -3.18103,6.26738 -3.18131,6.26849 -3.04895,12.30312 0.0606,2.7649 0.12017,6.50138 0.13229,8.30331 l 0.022,3.27622 2.24896,-0.14817 c 1.23693,-0.0815 4.451615,-0.5324 7.14375,-1.002 3.737227,-0.6519 5.708216,-0.85803 8.334375,-0.87162 3.769654,-0.0195 4.797004,0.15345 10.31875,1.73708 4.201438,1.20497 6.838836,1.78501 7.805208,1.71659 0.648015,-0.0459 0.660326,-0.0872 0.60574,-2.0312 z m 27.17551,0.86194 c 7.94984,-2.22561 8.08537,-2.25109 12.03854,-2.26337 2.99341,-0.009 4.66877,0.15201 8.73125,0.84072 2.7649,0.46872 5.98875,0.92193 7.16412,1.00712 l 2.13703,0.15489 -0.0155,-2.74805 c -0.008,-1.51142 0.0878,-5.01023 0.21413,-7.77513 0.28983,-6.34526 0.17628,-6.84031 -3.07945,-13.42496 l -2.45159,-4.95829 -1.19062,0.11981 c -0.65484,0.0659 -5.29828,0.18627 -10.31875,0.2675 -5.02047,0.0812 -9.9318,0.21679 -10.91406,0.30127 l -1.78594,0.15359 v 1.1742 c 0,1.72453 -0.50501,6.05679 -0.93634,8.03251 -0.24289,1.11253 -1.31323,3.58829 -3.03127,7.01146 -1.46069,2.91041 -2.83241,6.00129 -3.048264,6.86861 -0.397666,1.59786 -0.533027,5.2895 -0.223523,6.09605 0.2365,0.61631 2.459497,0.3321 6.710227,-0.85793 z"
       id="path5345" />
  </g>
</svg>
