<svg xmlns="http://www.w3.org/2000/svg" width="488.459" height="607.369" viewBox="0 0 129.238 160.7"><path d="M84.91 229.005c-1.09-.049-5.02-.217-8.73-.374-14.412-.609-33.225-2.014-34.066-2.544-.708-.447-.805-1.703-.18-2.329.522-.52.566-.52 7.92.095 8.127.679 20.73 1.469 20.89 1.309.202-.202 1.4-7.762 1.912-12.069.34-2.855.462-5.863.457-11.182-.007-7.653-.235-10.025-1.47-15.285-.475-2.027-.671-2.474-1.128-2.573-1.925-.418-19.738-1.451-25.16-1.459-4.293-.006-4.982-.214-5.11-1.542-.168-1.728-.153-1.731 7.36-1.543 18.78.47 38.535 2.706 56.753 6.425 3.201.654 6.83 1.372 8.063 1.596s4.567.982 7.407 1.685 5.199 1.243 5.242 1.2c.115-.115-.662-8.045-1.146-11.703-1.944-14.695-6.414-29.887-12.95-44.005-2.256-4.875-5.608-11.147-7.45-13.942-1.787-2.71-3.012-3.76-7.208-6.18-4.118-2.373-6.055-3.837-7.242-5.472-1.326-1.827-1.535-2.298-2.318-5.23-.803-3.007-.737-2.958-3.586-2.653l-1.637.175-.114 2.43c-.125 2.665-.58 3.874-2.121 5.628-2.022 2.303-4.425 3.073-9.733 3.12-3.28.029-3.678-.021-4.874-.61-1.674-.823-3.126-2.284-4.015-4.04-.635-1.252-.794-2.218-1.607-9.732-.548-5.057-.844-8.914-.754-9.796.296-2.884 2.385-5.735 5.07-6.923 1.448-.64 7.108-1.363 8.973-1.145 2.844.331 5.622 2.35 6.8 4.94l.593 1.305 1.985-.18c1.091-.098 2.061-.223 2.156-.277.094-.055.255-.963.357-2.019.474-4.883 2.978-8.805 6.749-10.57 3.276-1.532 9.523-2.463 15.15-2.258 4.057.149 6.474.671 8.983 1.943 2.783 1.41 5.172 4.73 5.444 7.567l.129 1.34 2.542-.177c1.399-.097 3.174-.25 3.945-.339 1.393-.161 1.4-.167 1.228-.95-.095-.433-.177-1.783-.183-3-.009-1.965.085-2.406.833-3.927.926-1.88 2.412-3.354 4.197-4.161 1.364-.618 7.107-1.38 8.881-1.178 1.602.182 3.743 1.15 5.014 2.265.536.47 1.337 1.592 1.78 2.493.762 1.548.856 2.103 1.712 10.199.973 9.2.963 10.08-.149 12.376-.737 1.523-3.096 3.63-4.663 4.165-1.667.569-6.1 1.04-8.3.883-2.234-.16-4.116-1.15-5.772-3.04-1.271-1.449-1.655-1.585-3.459-1.224-1.084.217-1.107.103 1.34 6.86 3.881 10.723 7.499 19.022 17.234 39.536 9.349 19.698 11.558 24.58 15.183 33.554 6.363 15.747 8.277 23.968 7.004 30.078-.58 2.781-2.207 5.753-4.417 8.066-7.587 7.941-22.156 12.251-47.464 14.041-3.736.265-28.312.536-32.28.357m33.603-3.524c25.673-2.088 40.01-6.762 45.339-14.784 3.651-5.496 3.28-11.529-1.524-24.76-3.804-10.479-7.625-19.205-17.622-40.25-11.182-23.54-14.82-31.962-18.804-43.524l-1.777-5.16-.888.068c-2.12.16-26.882 2.735-27.5 2.86-1.323.267-1.82-.512-2.108-3.3-.436-4.235.241-7.98 1.95-10.794 1.701-2.8 1.818-3.697.556-4.272-1.145-.522-1.808.08-4.991 4.537-2.67 3.738-3.141 4.826-3.117 7.194.022 2.129 1.062 7.562 2.038 10.653 1.129 3.573 2.195 4.666 7.561 7.748 4.097 2.353 5.485 3.37 6.894 5.054 3.436 4.104 10.385 18.005 14.333 28.672 4.816 13.012 8.437 29.018 9.466 41.84l.343 4.27 1.547.43c1.706.473 2.267 1.16 1.956 2.397-.35 1.397-1.056 1.404-6.047.059-18.457-4.973-31.745-7.568-50.496-9.86l-1.22-.15.614 2.972c1.051 5.091 1.297 7.955 1.28 14.927-.018 6.985-.357 11.039-1.57 18.764-.364 2.317-.617 4.256-.563 4.31.576.577 37.469.658 44.35.099M74.397 109.013c1.256-.325 2.712-1.59 3.416-2.97.66-1.296.618-2.508-.429-12.214-.653-6.057-.774-6.715-1.43-7.801-.53-.877-1.116-1.39-2.24-1.965l-1.522-.778-3.231.33c-3.677.377-4.984.847-6.197 2.228-1.563 1.78-1.583 2.134-.63 11.358.715 6.917.951 8.464 1.445 9.458.693 1.394 2.345 2.656 3.783 2.89 1.142.185 5.543-.15 7.035-.536m9.366-10.983 1.576-.165-.341-2.283a75 75 0 0 1-.5-4.313l-.158-2.03-.839.104c-3.677.456-3.399.36-3.247 1.131.076.39.27 2.138.432 3.884.16 1.746.34 3.324.398 3.506.12.375.467.397 2.68.166m60.23-.872c1.937-.456 3.593-2.053 4.165-4.018.195-.669.052-2.929-.556-8.836-.45-4.366-.934-8.39-1.077-8.945-.35-1.361-1.858-2.964-3.308-3.518-1.066-.407-1.527-.422-4.347-.146-3.748.366-4.985.808-6.18 2.204-1.367 1.597-1.57 2.837-1.094 6.656.22 1.771.64 5.516.934 8.323.552 5.295.763 6.048 2.033 7.25 1.532 1.45 2.063 1.59 5.381 1.42 1.674-.084 3.495-.26 4.049-.39m-35.732-1.746c15.71-1.603 21.143-2.2 21.283-2.34.143-.143-.668-8.15-.843-8.325-.055-.056-1.567.031-3.359.194-5.419.491-5.734.55-5.905 1.09-.299.94-3.008 3.343-4.68 4.152-2.423 1.173-4.196 1.53-7.357 1.485-3.029-.043-5.902-.66-8.408-1.808-.795-.364-1.486-.661-1.535-.661-.428 0-1.046 5.117-.785 6.505.178.953.185.957 1.287.802.609-.086 5.245-.579 10.302-1.094m2.389-7.132c3.142-.666 5.3-2.208 6.435-4.6.576-1.215.523-2.658-.156-4.195-1.126-2.549-3.362-3.97-7.477-4.754-4.33-.825-13.308-.003-16.912 1.547-1.699.73-3.7 2.896-4.396 4.755-.546 1.46-1.071 4.726-.76 4.726.089 0 .845-.982 1.682-2.183 3.906-5.605 6.592-6.724 9.605-4.002 1.71 1.546 1.94 3.226.793 5.837l-.486 1.108 2.26.818c3.7 1.338 6.31 1.6 9.412.943" style="fill:currentColor;stroke-width:.264583" transform="translate(-40.204 -68.363)"/></svg>