<?xml version="1.0" encoding="UTF-8" standalone="no"?>
<!-- Created with Inkscape (http://www.inkscape.org/) -->

<svg
   width="49.306248mm"
   height="121.20177mm"
   viewBox="0 0 49.306248 121.20177"
   version="1.1"
   id="svg5433"
   inkscape:version="1.2.2 (b0a8486541, 2022-12-01)"
   xmlns:inkscape="http://www.inkscape.org/namespaces/inkscape"
   xmlns:sodipodi="http://sodipodi.sourceforge.net/DTD/sodipodi-0.dtd"
   xmlns="http://www.w3.org/2000/svg"
   xmlns:svg="http://www.w3.org/2000/svg">
  <sodipodi:namedview
     id="namedview5435"
     pagecolor="#ffffff"
     bordercolor="#000000"
     borderopacity="0.25"
     inkscape:showpageshadow="2"
     inkscape:pageopacity="0.0"
     inkscape:pagecheckerboard="0"
     inkscape:deskcolor="#d1d1d1"
     inkscape:document-units="mm"
     showgrid="false"
     inkscape:zoom="0.62092452"
     inkscape:cx="288.2798"
     inkscape:cy="426.78295"
     inkscape:window-width="1534"
     inkscape:window-height="831"
     inkscape:window-x="66"
     inkscape:window-y="32"
     inkscape:window-maximized="1"
     inkscape:current-layer="layer1" />
  <defs
     id="defs5430" />
  <g
     inkscape:label="Layer 1"
     inkscape:groupmode="layer"
     id="layer1"
     transform="translate(-28.61086,-35.700411)">
    <path
       style="fill:#000000;stroke-width:0.264583"
       d="m 54.14315,156.5859 c -4.040463,-0.76555 -9.142701,-2.85527 -10.648884,-4.36145 -0.720392,-0.72039 -2.181278,-3.79134 -2.184885,-4.59288 -7.93e-4,-0.18037 -0.118885,-0.75058 -0.262384,-1.26713 l -0.260909,-0.93919 -3.507928,0.0132 c -4.10557,0.0154 -5.72036,-0.34637 -6.69001,-1.49873 -1.3135,-1.56101 -0.5219,-4.1935 2.1505,-7.15153 1.04089,-1.15214 3.43308,-4.74468 4.28991,-6.4425 l 0.54655,-1.08299 -0.64809,-3.94409 c -0.90833,-5.52785 -1.63808,-11.46459 -1.98087,-16.11494 -0.58559,-7.94433 -1.58126,-11.85501 -3.98711,-15.66016 -1.79443,-2.83809 -2.34818,-4.75719 -2.34818,-8.13788 0,-2.94927 0.50549,-5.41746 1.74708,-8.53053 1.04951,-2.63144 12.036267,-25.37724 13.317261,-27.5706 1.421622,-2.43415 3.506311,-4.66125 5.898065,-6.30096 1.058228,-0.72549 4.70226,-2.72955 8.097851,-4.45346 6.540469,-3.32055 6.953481,-3.43064 7.137083,-1.90246 0.07101,0.59105 -0.154355,0.81803 -1.720205,1.73253 -0.991055,0.57881 -3.647202,1.94917 -5.90255,3.04524 -4.865933,2.3648 -7.019118,3.74423 -8.991306,5.76025 -1.996244,2.04061 -2.450674,2.8593 -8.364892,15.06999 -5.851597,12.08139 -7.498687,15.6484 -7.586007,16.42854 -0.0515,0.46008 0.5703,0.81653 4.17283,2.39214 6.957612,3.04299 14.652515,6.03466 15.52182,6.03466 0.551254,0 0.09919,-1.00426 -1.349841,-2.99867 -3.37734,-4.64847 -4.132826,-7.65497 -3.38973,-13.48962 0.244308,-1.91827 0.863629,-5.38225 1.376272,-7.69776 0.63042,-2.84748 0.847421,-4.312 0.670505,-4.52517 -0.396383,-0.47762 -0.621425,-4.72074 -0.404104,-7.61938 0.22986,-3.06589 0.754838,-3.88183 1.993683,-3.09865 0.331058,0.20929 0.381217,0.95782 0.307062,4.58235 l -0.08863,4.3322 4.058565,0.57023 c 6.321116,0.8881 5.523709,1.08859 6.39022,-1.60664 0.748958,-2.32959 1.294471,-3.01036 2.149377,-2.6823 0.637868,0.24477 0.740077,1.15404 0.294029,2.6157 -0.535747,1.75559 -0.546775,1.71979 0.529743,1.71979 1.955308,0 3.555773,1.56102 3.557747,3.47005 0.0013,1.19238 -0.74883,2.18479 -2.206835,2.91986 -0.604707,0.30486 -1.135882,0.58601 -1.180388,0.62475 -0.04451,0.0387 1.073944,6.1856 2.485448,13.65967 2.350958,12.44858 2.625307,13.65704 3.26852,14.39733 1.172528,1.34948 1.484434,2.38451 1.101977,3.65678 -0.180441,0.60024 -0.321676,1.35658 -0.313857,1.68074 0.0078,0.32417 0.849209,5.35676 1.869755,11.18354 1.020545,5.82678 1.857327,11.27655 1.859515,12.11061 0.0033,1.2365 -0.179924,1.87644 -0.992187,3.46643 -0.547891,1.07248 -1.321427,2.26866 -1.718966,2.65817 l -0.722797,0.70821 2.667053,12.67752 c 1.734074,8.24271 2.801869,12.7761 3.052445,12.95933 0.52537,0.38415 0.91799,2.22604 0.600832,2.81865 -0.321903,0.60148 -1.943185,0.91112 -2.778316,0.53061 -0.590873,-0.26922 -0.642284,-0.44319 -0.654902,-2.21606 -0.0098,-1.37934 -0.740177,-5.36837 -2.580322,-14.09295 l -2.566634,-12.16905 -1.050308,-0.49455 c -2.240815,-1.05512 -5.173128,-3.70134 -5.742951,-5.18264 -0.1431,-0.37201 -1.436936,-7.43667 -2.875185,-15.69924 L 56.939681,91.85794 55.81571,90.52498 c -1.319392,-1.56473 -1.490086,-1.41374 -1.524503,1.34849 -0.02747,2.20469 -0.552045,7.07681 -1.709237,15.875 -1.931456,14.68492 -1.897465,18.70446 0.271735,32.13417 0.374951,2.32135 0.781407,4.48282 0.90324,4.80326 0.360815,0.94901 2.332744,2.70307 5.016415,4.46217 3.996894,2.6199 4.702644,3.59468 3.868695,5.34349 -0.88184,1.84924 -4.755113,2.80373 -8.498903,2.09439 z m 5.612537,-2.58595 c 0.397423,-0.19048 0.725932,-0.46539 0.730025,-0.61091 0.0041,-0.14552 -1.163907,-1.05181 -2.595552,-2.01397 -1.431644,-0.96216 -3.138363,-2.19691 -3.792712,-2.74387 l -1.189723,-0.99449 -1.895829,0.552 c -1.042707,0.3036 -2.937627,0.69318 -4.210934,0.86574 -1.519015,0.20585 -2.315104,0.42833 -2.315104,0.647 0,1.15326 4.74082,3.40185 9.525,4.51774 1.692902,0.39486 4.703249,0.27997 5.744829,-0.21924 z m -12.32938,-7.36092 c 2.24131,-0.42103 4.235027,-1.05439 4.084702,-1.29763 -0.203206,-0.32879 -1.620431,-9.11862 -2.157903,-13.38361 -0.54761,-4.34547 -0.610761,-12.08737 -0.132725,-16.27187 0.174553,-1.52797 0.786162,-6.40954 1.35913,-10.84792 1.146043,-8.87761 1.690084,-14.82237 1.381914,-15.10022 -0.109739,-0.099 -1.211557,-0.50879 -2.448484,-0.91075 -3.013998,-0.97947 -5.137907,-1.82271 -12.116801,-4.81067 -3.24451,-1.38911 -5.95934,-2.46542 -6.03295,-2.3918 -0.43664,0.43663 -0.70075,3.82095 -0.43313,5.54996 0.28083,1.8143 0.57436,2.50197 2.90926,6.81556 2.02837,3.74728 2.7114,6.70121 3.36487,14.55209 0.55182,6.62966 1.00389,10.23954 2.120557,16.93333 0.49766,2.98318 1.209477,7.38849 1.581819,9.78958 0.372341,2.4011 1.116079,6.00274 1.652752,8.00365 l 0.975773,3.63802 h 1.233022 c 0.678159,0 1.874348,-0.12047 2.658194,-0.26772 z m -7.570658,-4.06456 c 0,-0.37489 -0.423105,-0.63833 -1.734629,-1.08005 -0.95405,-0.32131 -2.3428,-0.91522 -3.08611,-1.31978 -0.74332,-0.40456 -1.45533,-0.67139 -1.58225,-0.59294 -0.12692,0.0784 -0.50785,0.69741 -0.8465,1.37549 -0.43465,0.87031 -0.53305,1.31556 -0.33459,1.51402 0.46444,0.46444 2.14112,0.68144 4.93825,0.63911 2.395891,-0.0363 2.645829,-0.0869 2.645829,-0.53585 z M 38.73645,136.3858 c -0.23165,-1.63504 -0.50415,-2.9728 -0.60557,-2.9728 -0.10141,0 -0.61984,0.68461 -1.15205,1.52135 -0.53221,0.83675 -1.1578,1.7875 -1.39021,2.11277 -0.41632,0.5827 -0.39408,0.60507 1.50804,1.51663 1.06183,0.50887 1.95992,0.89588 1.99578,0.86003 0.0359,-0.0358 -0.12435,-1.40294 -0.35599,-3.03798 z M 70.432776,125.466 c 0.530892,-0.28413 1.734431,-2.43469 2.140352,-3.82452 0.174522,-0.59755 -0.238138,-3.50267 -1.653987,-11.64411 -1.03759,-5.96635 -1.962438,-10.92923 -2.055217,-11.02861 -0.09278,-0.0994 -0.818965,0.0494 -1.613742,0.33073 -1.03157,0.36509 -2.148247,0.51143 -3.902604,0.51143 -2.236991,0 -2.457553,0.0451 -2.457553,0.50209 0,1.22421 3.692647,21.44807 4.010803,21.96632 0.195151,0.3179 1.004147,1.07778 1.797767,1.68864 2.416381,1.85992 2.783094,2.00704 3.734181,1.49803 z M 67.286899,96.62247 c 1.19407,-0.34245 2.069793,-0.9915 2.069793,-1.53403 0,-1.14891 -2.135331,-2.13518 -4.655347,-2.15022 -0.6918,-0.004 -1.232662,-0.17385 -1.496171,-0.46949 -0.63586,-0.71339 -4.771147,-8.5182 -6.268321,-11.83064 -1.755521,-3.88401 -2.055505,-5.39658 -1.640104,-8.26964 0.372872,-2.57892 1.853224,-7.94734 2.850409,-10.33686 0.381857,-0.91503 0.619295,-1.73869 0.527638,-1.83034 -0.265626,-0.26563 -6.630469,-1.12852 -6.816218,-0.92408 -0.09234,0.10163 -0.538482,1.9112 -0.991412,4.02125 -2.314691,10.78338 -2.179936,13.95911 0.774295,18.24751 1.713484,2.48731 5.220081,6.75437 7.877506,9.58587 1.506964,1.60568 2.154643,2.51721 2.40691,3.38745 0.189828,0.65484 0.520361,1.53088 0.73452,1.94675 0.384723,0.74708 0.409845,0.75392 2.102038,0.57271 0.941964,-0.10088 2.077974,-0.28818 2.524464,-0.41624 z m -0.176208,-6.4027 c -0.07668,-0.32742 -1.160483,-6.01265 -2.408457,-12.63385 -1.247973,-6.6212 -2.309894,-12.07945 -2.359826,-12.12945 -0.04993,-0.05 -0.84363,0.3072 -1.763771,0.79375 L 58.90565,67.13488 58.177252,69.913 c -0.559446,2.13373 -0.708483,3.23986 -0.642535,4.76875 0.07973,1.84843 0.222398,2.27367 1.997255,5.95313 1.051266,2.17937 2.633734,5.29533 3.516593,6.92436 1.674378,3.0895 1.673733,3.08893 3.601188,3.2162 0.494525,0.0327 0.575778,-0.0653 0.460938,-0.55567 z M 62.881075,62.43945 c 2.21931,-1.10374 2.775591,-1.49121 2.71516,-1.89121 -0.156356,-1.03496 -0.86546,-1.11657 -2.580304,-0.29695 -0.88406,0.42255 -1.771724,0.95358 -1.972585,1.18009 -0.389829,0.4396 -1.262751,2.3962 -1.069044,2.3962 0.06359,0 1.371634,-0.62466 2.906773,-1.38813 z"
       id="path5414" />
  </g>
</svg>
