<?xml version="1.0" encoding="UTF-8" standalone="no"?>
<!-- Created with Inkscape (http://www.inkscape.org/) -->

<svg
   width="110.29214mm"
   height="116.34127mm"
   viewBox="0 0 110.29214 116.34127"
   version="1.1"
   id="svg233"
   inkscape:version="1.2.2 (b0a8486541, 2022-12-01)"
   xmlns:inkscape="http://www.inkscape.org/namespaces/inkscape"
   xmlns:sodipodi="http://sodipodi.sourceforge.net/DTD/sodipodi-0.dtd"
   xmlns="http://www.w3.org/2000/svg"
   xmlns:svg="http://www.w3.org/2000/svg">
  <sodipodi:namedview
     id="namedview235"
     pagecolor="#ffffff"
     bordercolor="#000000"
     borderopacity="0.25"
     inkscape:showpageshadow="2"
     inkscape:pageopacity="0.0"
     inkscape:pagecheckerboard="0"
     inkscape:deskcolor="#d1d1d1"
     inkscape:document-units="mm"
     showgrid="false"
     inkscape:zoom="0.54163861"
     inkscape:cx="208.62619"
     inkscape:cy="219.70369"
     inkscape:window-width="1534"
     inkscape:window-height="831"
     inkscape:window-x="0"
     inkscape:window-y="0"
     inkscape:window-maximized="1"
     inkscape:current-layer="layer1" />
  <defs
     id="defs230" />
  <g
     inkscape:label="Layer 1"
     inkscape:groupmode="layer"
     id="layer1"
     transform="translate(-49.878602,-90.329366)">
    <path
       style="fill:#000000;stroke-width:0.264583"
       d="m 71.72879,206.36989 c -2.23385,-1.2355 -3.57054,-4.42225 -3.1768,-7.57367 0.14988,-1.19964 0.35672,-1.65353 1.08567,-2.38248 0.49527,-0.49528 0.9005,-0.93867 0.9005,-0.98532 0,-0.0466 -0.36002,-0.16388 -0.80006,-0.26053 -0.44003,-0.0967 -2.00362,-0.64477 -3.47465,-1.21804 -8.61212,-3.35625 -13.572627,-7.6543 -15.746695,-13.64379 -0.824923,-2.27264 -0.853249,-5.51745 -0.06652,-7.62018 0.695486,-1.85886 2.565371,-3.88986 4.477507,-4.86331 l 1.455208,-0.74083 0.18445,-3.41874 c 0.10144,-1.8803 0.31658,-5.62138 0.47809,-8.31352 1.24277,-20.71549 4.07645,-33.90464 8.87965,-41.32963 3.31134,-5.11881 5.78243,-6.92599 12.70807,-9.29376 1.905663,-0.65152 4.082643,-1.49765 4.837743,-1.88028 1.77579,-0.89986 3.37646,-2.55427 4.23942,-4.381744 0.60142,-1.27363 0.68717,-1.79588 0.68717,-4.18539 0,-2.35593 0.0654,-2.76686 0.47724,-2.99768 0.68694,-0.38501 1.65815,0.33137 1.86735,1.37739 0.50844,2.54221 -0.0508,5.67875 -1.39856,7.844154 -0.73208,1.17618 -0.73295,1.1833 -0.39888,3.26967 0.80124,5.00411 2.63652,7.95006 5.89403,9.46102 1.23177,0.57135 1.87054,0.69212 3.61298,0.68311 5.042217,-0.0261 6.886707,-1.76601 8.099057,-7.63992 0.55437,-2.68595 0.6327,-4.25947 0.2246,-4.51168 -0.57368,-0.35456 -1.59859,-2.300254 -1.97705,-3.753254 -0.40573,-1.55771 -0.52287,-4.91976 -0.22355,-6.41633 0.22303,-1.11515 1.22978,-1.63435 1.88962,-0.97452 0.3752,0.3752 0.45282,0.98207 0.45441,3.55265 0.002,3.59049 0.42901,4.89057 2.08197,6.341864 1.32625,1.16446 2.19581,1.49034 6.58687,2.46857 5.71517,1.27321 7.74867,2.25249 10.60169,5.10551 2.65247,2.65247 4.15591,5.25216 7.05713,12.20296 5.86921,14.06153 11.12857,24.07862 19.6148,37.35877 4.80983,7.52693 6.39057,10.51688 6.99395,13.22898 0.51104,2.29702 0.39518,4.98592 -0.30284,7.02828 -0.62185,1.81948 -2.35012,3.61601 -3.6783,3.82359 -0.88229,0.13789 -1.3807,0.51296 -3.11175,2.34169 -2.12185,2.24159 -5.62221,5.03998 -8.78387,7.02233 l -1.80014,1.12869 1.28774,0.57652 c 2.29598,1.0279 3.00754,2.2382 3.00754,5.11556 0,3.521 -1.475,6.2372 -3.71013,6.83221 -1.08181,0.28798 -22.0306,-0.0311 -29.36279,-0.44718 -5.64851,-0.32057 -8.77504,-0.72449 -14.684367,-1.89709 -4.80591,-0.95364 -3.42073,-1.0861 -11.1125,1.06268 -5.49793,1.53591 -12.941573,3.21255 -14.221833,3.20338 -0.6182,-0.004 -1.36213,-0.13974 -1.65317,-0.30071 z m 8.598963,-3.51177 c 2.69213,-0.64904 5.90682,-1.46326 7.14375,-1.80939 l 2.24895,-0.62931 -6.86368,-1.66701 c -6.137073,-1.49054 -7.057183,-1.65079 -8.691423,-1.51378 -2.20925,0.18521 -3.01411,0.6539 -3.24605,1.89024 -0.237,1.26331 0.3322,3.44487 1.15347,4.42089 0.63889,0.75927 0.76286,0.79908 2.02042,0.64867 0.73687,-0.0881 3.54242,-0.69127 6.234563,-1.34031 z m 62.697837,-0.9939 c 0.7181,-0.77079 1.06346,-2.10165 1.06526,-4.10495 0.001,-1.3323 -0.10417,-1.74177 -0.55673,-2.16339 -1.52857,-1.42408 -5.89387,-1.39255 -13.46471,0.0973 -2.69213,0.52977 -5.91798,1.03199 -7.16854,1.11606 -7.74433,0.52056 -16.03665,-3.13972 -30.137707,-13.30299 -2.98317,-2.15011 -7.30886,-5.26781 -9.61263,-6.92823 C 78.26054,173.0536 74.73503,170.8102 71.5965,169.22579 l -2.24896,-1.13532 -0.0934,0.70713 c -0.14806,1.12144 0.46714,4.08802 1.59575,7.69493 1.41269,4.51481 1.79639,6.22932 1.801,8.04766 0.003,1.36825 -0.0868,1.63245 -0.80261,2.34823 -0.71488,0.71487 -0.93276,0.78959 -1.91747,0.65751 -0.84903,-0.11388 -1.34126,-0.39592 -2.08786,-1.19631 l -0.97691,-1.0473 -0.28218,1.31579 c -0.33912,1.58126 -0.6552,2.23237 -1.54887,3.19063 -0.3718,0.39867 -0.62514,0.77064 -0.56299,0.82661 0.0622,0.056 1.18457,0.52646 2.49426,1.04554 5.62989,2.23132 28.096463,7.83792 37.17396,9.27688 6.32327,1.00235 13.57805,1.3415 30.87979,1.44356 7.37335,0.0435 7.47076,0.037 8.00555,-0.53707 z m -13.33971,-8.51145 c 2.62671,-0.51483 5.57136,-1.01757 6.54367,-1.11718 1.63357,-0.16737 2.03445,-0.35091 5.27833,-2.41672 4.46257,-2.84191 6.71483,-4.57489 9.18732,-7.06911 l 1.97265,-1.99 -0.69926,-0.73274 c -0.3846,-0.40301 -1.13217,-1.64598 -1.66128,-2.76216 l -0.96201,-2.02941 -0.94362,0.64035 c -1.76595,1.1984 -3.35262,0.58697 -4.19402,-1.61619 -0.36713,-0.96131 -0.42798,-1.73024 -0.31388,-3.96591 0.0779,-1.52536 0.0448,-2.77338 -0.0734,-2.77338 -0.6042,0 -6.835,1.95035 -9.32014,2.91738 -7.96644,3.09991 -19.31519,9.63131 -28.75206,16.54729 -2.03755,1.49326 -2.25522,1.21781 3.02225,3.82456 8.07284,3.9875 11.45091,4.39826 20.91543,2.54322 z m -66.95731,-4.77919 c 0.7683,-0.32102 0.96421,-0.59022 1.29972,-1.78594 0.46477,-1.65638 0.84898,-4.27147 1.21296,-8.25591 0.14467,-1.58356 0.3982,-3.04208 0.56341,-3.24114 0.41788,-0.50352 1.13075,-0.45162 1.64805,0.11999 0.38399,0.42431 0.40473,0.81154 0.17345,3.23887 l -0.26268,2.75695 0.74579,1.19289 c 0.41018,0.6561 0.91356,1.45849 1.11863,1.78311 0.20506,0.32461 0.54172,0.65501 0.74814,0.73421 0.66173,0.25394 0.15153,-2.85522 -1.15079,-7.01296 -1.8634,-5.94898 -2.08436,-7.22799 -2.07981,-12.03854 0.006,-5.93741 0.63827,-9.20671 3.78367,-19.55277 2.11188,-6.94652 3.25754,-11.32974 4.23831,-16.21543 l 0.80663,-4.0182 -0.48052,-2.19951 c -0.56305,-2.57732 -0.50892,-3.06856 0.36223,-3.28721 0.88006,-0.22088 1.38564,0.2708 1.74469,1.69672 l 0.3013,1.19655 0.51705,-0.6382 c 0.93321,-1.15185 2.558273,-4.67858 3.240313,-7.03216 0.74637,-2.57558 1.08867,-6.11128 0.80863,-8.35262 l -0.18471,-1.47835 -3.013693,1.01246 c -3.99103,1.34081 -6.00233,2.44535 -7.94762,4.36455 -3.55696,3.50927 -5.8118,8.10047 -7.79656,15.875 -1.73322,6.78921 -3.07854,17.08951 -3.69761,28.31042 -0.5986,10.84997 -0.78058,12.6942 -1.71005,17.33021 -1.57726,7.86695 -1.18204,11.78128 1.44707,14.33221 0.70026,0.67944 1.55149,1.2883 1.89163,1.35303 0.34013,0.0647 0.65201,0.13391 0.69306,0.15373 0.0411,0.0198 0.48175,-0.13407 0.97931,-0.34196 z m 42.8571,-4.39728 c 3.75506,-2.69337 8.97904,-6.1431 11.98695,-7.91576 1.05766,-0.62331 1.98923,-1.24044 2.07017,-1.3714 0.0809,-0.13097 -0.21755,-1.33651 -0.66332,-2.67899 -0.90308,-2.71974 -1.77722,-6.62394 -2.03622,-9.09446 -0.0938,-0.89458 -0.25658,-1.76576 -0.36177,-1.93596 -0.14142,-0.22882 -1.21851,-0.10189 -4.13343,0.48708 -5.7197,1.1557 -8.62832,1.45266 -14.128637,1.44245 -5.23275,-0.01 -10.34915,-0.50127 -15.875,-1.52523 -1.81901,-0.33707 -3.335943,-0.58901 -3.370953,-0.55987 -0.15845,0.13189 -1.39052,6.00921 -1.53068,7.30183 l -0.1565,1.44329 2.571663,1.68326 c 1.41442,0.92579 5.58503,3.87175 9.26802,6.54657 8.8784,6.44804 12.344837,8.83671 12.665327,8.72746 0.14552,-0.0496 1.80799,-1.19723 3.69438,-2.55027 z M 55.192707,173.40147 c 0.332923,-1.64032 0.517093,-3.06907 0.409253,-3.175 -0.375603,-0.36898 -2.693221,2.48233 -3.048172,3.75009 -0.57386,2.04964 -0.246888,4.8524 0.812355,6.96338 l 0.900144,1.79392 0.160552,-3.175 c 0.0883,-1.74625 0.432943,-4.51708 0.765868,-6.15739 z m 100.786153,5.77107 c 0.70132,-0.37533 1.60685,-2.70367 1.78232,-4.5828 0.32099,-3.43739 -0.84298,-6.07377 -6.90887,-15.64851 -4.45478,-7.03164 -5.9216,-9.45274 -8.34754,-13.7782 -2.49627,-4.45088 -7.93836,-15.61115 -10.06347,-20.6375 -3.56971,-8.44315 -4.08423,-9.52654 -5.61643,-11.82626 -2.67144,-4.00965 -5.71424,-6.07163 -10.48197,-7.10321 -1.36495,-0.29532 -2.5105,-0.50279 -2.54567,-0.46104 -0.12276,0.14574 0.93347,4.86109 1.73189,7.73175 0.4426,1.59132 1.29925,4.15117 1.90367,5.68854 l 1.09894,2.79522 0.27874,-0.92604 c 0.1533,-0.50933 0.37506,-1.07487 0.49279,-1.25678 0.31061,-0.47993 1.09159,-0.40537 1.59636,0.1524 0.37956,0.41941 0.40237,0.75806 0.17296,2.56749 l -0.26427,2.08436 1.33636,3.98095 c 3.48175,10.37189 8.43034,17.9989 18.41692,28.38504 6.16083,6.40734 6.04736,6.2424 6.03206,8.76786 -0.007,1.1097 -0.11286,3.33345 -0.23586,4.94167 -0.3217,4.20625 0.44596,5.35032 1.58637,2.3642 0.3608,-0.94474 0.39211,-1.42964 0.1738,-2.69114 -0.3089,-1.78492 -0.0707,-2.46481 0.86348,-2.46481 0.72012,0 1.4609,0.88471 1.4609,1.74474 0,1.08957 1.32092,5.76591 2.09736,7.42513 1.20717,2.57967 2.22808,3.39509 3.43916,2.74694 z m -29.95373,-7.52034 c 5.1223,-2.55793 10.55851,-4.69259 14.64266,-5.74981 1.81074,-0.46872 3.40416,-0.95009 3.54095,-1.06971 0.54199,-0.47395 -0.76454,-2.13914 -5.57229,-7.10195 -8.47982,-8.7533 -13.46928,-15.78416 -16.71082,-23.54791 -0.57721,-1.38245 -1.16632,-2.87073 -1.30915,-3.30729 -0.29133,-0.89048 -0.18894,-1.782 -1.13945,9.92187 -1.04909,12.91774 -0.95548,18.45693 0.42875,25.36965 0.57742,2.88359 1.87531,7.43868 2.11951,7.43868 0.0483,0 1.84824,-0.87909 3.99984,-1.95353 z m -49.81417,-8.89438 c 0.52996,-2.54662 1.14778,-5.7613 1.37294,-7.14375 0.54167,-3.3258 0.79297,-14.49936 0.39295,-17.47175 -0.46255,-3.43703 -0.86208,-5.54726 -1.0497,-5.54432 -0.0942,0.002 -0.57124,1.68078 -1.06008,3.73179 -0.48884,2.05101 -1.76095,6.62666 -2.82691,10.16812 -2.76743,9.19423 -3.33762,11.69653 -3.96017,17.37917 l -0.1661,1.51614 1.14287,0.45099 c 0.62857,0.24805 1.9763,0.88989 2.99494,1.42633 1.59657,0.84078 1.87579,0.91616 2.02389,0.54641 0.0945,-0.23591 0.6054,-2.51252 1.13537,-5.05913 z m 31.36887,-2.66129 c 1.96453,-0.28692 4.72468,-0.78892 6.13366,-1.11555 l 2.56178,-0.59389 0.1174,-6.14901 c 0.0646,-3.38196 0.0406,-6.14901 -0.0532,-6.14901 -0.0939,0 -2.25199,0.34776 -4.79585,0.77281 -9.66226,1.61445 -18.764557,1.74606 -27.840647,0.40255 -1.41787,-0.20989 -2.67941,-0.38161 -2.80344,-0.38161 -0.12402,0 -0.30352,1.45851 -0.39889,3.24114 -0.0954,1.78263 -0.34734,4.37082 -0.55993,5.75153 -0.21258,1.38072 -0.30175,2.59194 -0.19815,2.69161 0.45039,0.43332 8.86706,1.62461 15.4019,2.17997 2.38084,0.20234 8.948067,-0.14122 12.435417,-0.65054 z m 0.13229,-15.05586 c 3.79344,-0.51245 8.79743,-1.44313 9.03464,-1.68034 0.21402,-0.21401 0.89275,-8.80587 1.06252,-13.45006 l 0.17069,-4.66942 -1.20218,-2.34204 c -2.17724,-4.24161 -4.09231,-10.19387 -5.12564,-15.93108 -0.42318,-2.34953 -0.48816,-2.49447 -1.267,-2.82617 -0.94156,-0.401 -0.75062,-0.79049 -1.75646,3.58293 -1.27388,5.53884 -3.4283,7.76468 -8.23284,8.50577 -2.513167,0.38765 -4.962747,0.0393 -7.010847,-0.99692 -2.95763,-1.49642 -5.6591,-5.32872 -6.43764,-9.13242 -0.18954,-0.92605 -0.42931,-1.77933 -0.53281,-1.89619 -0.1035,-0.11685 -0.61942,0.042 -1.14649,0.35295 l -0.95831,0.56542 0.15723,3.21892 c 0.31348,6.41757 -1.4656,12.16141 -5.338273,17.23488 l -0.93647,1.22685 0.80494,3.62339 c 1.098433,4.94446 1.591743,8.45695 1.593593,11.34683 7.9e-4,1.33748 0.0909,2.48692 0.2,2.55431 0.3187,0.19677 5.77521,0.9516 8.79739,1.217 4.27043,0.375 13.518547,0.11751 18.123957,-0.50461 z"
       id="path5552" />
  </g>
</svg>
