<svg xmlns="http://www.w3.org/2000/svg" width="628.878" height="397.59" viewBox="0 0 166.391 105.196"><path d="M-33.007 136.799c-.132-.328-.67-6.57-1.194-13.871-.54-7.526-1.121-13.916-1.34-14.755-.576-2.215-1.434-3.719-4.256-7.465-2.414-3.204-4.335-6.541-4.335-7.53 0-.365-.388-.475-2.183-.619-6.94-.557-12.65-2.184-18.723-5.332-6.22-3.225-7.394-5.511-7.054-13.73.26-6.28 1.8-12.188 5.571-21.385 1.437-3.503 1.672-4.293 1.48-4.96-.213-.745-2.353-6.108-2.502-6.275-.038-.042-5.218 2.195-11.51 4.97-7.402 3.263-11.618 4.989-11.94 4.887-.579-.184-.956-1.36-.563-1.753.148-.148 5.431-2.552 11.741-5.343l11.473-5.073.163-1.698c.145-1.512.266-1.793 1.106-2.563 1.497-1.371 4.146-2.063 7.86-2.052 6.488.018 9.524 1.553 9.524 4.815V38.1l5.358.168c2.947.092 8.402.245 12.123.339l6.764.17.247-1.558c.247-1.557.247-1.558 1.173-1.558h.926l.175 5.424c.248 7.68 1.057 11.54 3.53 16.84.621 1.333 1.39 3.208 1.71 4.168.478 1.436.683 1.746 1.155 1.746.737 0 3.312 1.22 5.518 2.613.95.6 1.953 1.09 2.228 1.09.275-.001 1.523-.626 2.773-1.39 1.249-.763 3.001-1.734 3.893-2.159 1.566-.745 1.64-.826 2.161-2.37.297-.88 1.48-3.33 2.63-5.446s2.286-4.435 2.526-5.153c.71-2.132 1.192-6.372 1.197-10.552.003-2.186.126-4.146.279-4.432.306-.572 1.304-.68 1.79-.194.174.175.317.845.317 1.49v1.174l4.035-.166c2.22-.09 7.577-.243 11.906-.338l7.872-.172v-.822c.001-1.82 1.521-3.53 3.665-4.121 2.158-.596 6.258-.872 8.493-.57 4.383.589 6.396 2.102 6.494 4.878l.047 1.34 10.957 4.823c6.027 2.653 11.285 5.006 11.685 5.23.9.502.993 1.593.173 2.031-.474.254-2.204-.433-12.047-4.788-6.322-2.796-11.526-5.04-11.565-4.984-.327.469-2.556 6.419-2.556 6.824 0 .289.774 2.443 1.72 4.789 4.303 10.665 5.574 16.256 5.365 23.6-.095 3.374-.212 4.297-.703 5.554-1.921 4.918-13.438 9.965-24.941 10.93l-2.022.17-.556 1.524c-.655 1.797-1.983 3.91-4.3 6.846-.926 1.172-2.07 2.77-2.542 3.552-1.51 2.5-1.806 4.458-2.85 18.859-.532 7.325-1.084 13.375-1.238 13.56-.406.49-1.478.407-1.768-.136-.16-.3-.148-1.939.034-4.512l.285-4.043-1.097-2.06c-1.98-3.715-3.062-7.195-3.915-12.595-.39-2.47-.465-5.01-.492-16.801-.028-11.86-.1-14.31-.496-16.751-.476-2.944-1.616-7.28-2.02-7.69-.13-.132-.868-.132-1.72 0l-1.49.231-.618 1.527c-1.16 2.86-2.835 4.405-5.987 5.522-1.437.509-2.249.603-5.27.613-3.46.011-3.626-.015-5.292-.809-.946-.45-2.339-1.312-3.095-1.913-1.26-1.001-3.684-3.674-4.248-4.681-.128-.229-.939-.583-1.803-.787-1.894-.449-1.878-.463-2.837 2.451-1.747 5.308-2.058 9.167-1.977 24.536.056 10.607.004 12.533-.404 14.996-.616 3.714-1.344 6.463-2.436 9.197l-.892 2.233.415 5.502c.45 5.958.4 6.304-.885 6.304-.41 0-.72-.21-.875-.595m48.41-21.233c.283-3.638.694-7.3.914-8.138.608-2.321 1.75-4.356 4.445-7.924 2.844-3.764 3.123-4.192 3.706-5.677l.433-1.101-1.245-.15a155 155 0 0 0-3.042-.319c-1.105-.105-2.017-.35-2.371-.637-.513-.415-.54-.546-.246-1.191.315-.691.395-.718 1.71-.563 9.849 1.162 17.98-.15 26.302-4.24 6.073-2.987 6.809-4.157 6.792-10.806-.01-4.184-.445-7.013-1.802-11.726-.863-3-2.981-8.696-4.63-12.45-1.036-2.362-1.012-3.359.146-6.119 1.35-3.216 2.181-5.607 2.377-6.834.145-.908.074-1.162-.483-1.72-1.41-1.41-6.787-1.889-10.95-.974-1.917.42-2.48 1.029-2.48 2.676 0 1.155.31 1.934 2.363 5.921 3.733 7.25 4.062 8.938 3.451 17.678-.275 3.938-.285 5.51-.045 7.158.43 2.947.456 2.928-3.517 2.739-1.748-.083-5.382-.523-8.074-.978-6.36-1.074-9.74-1.258-12.727-.694-2.122.402-7.289 1.835-7.548 2.095-.064.063.183 1.145.547 2.403.636 2.193 1.196 5.103 1.635 8.498.113.873.215 7.66.227 15.081.018 11.597.087 13.896.49 16.354.518 3.158 1.475 6.692 2.373 8.76l.583 1.345.076-.926c.042-.51.308-3.903.59-7.541m-46.61 1.124c.951-4.605 1.116-7.826 1.056-20.627-.048-10.296.013-12.7.382-15.084.5-3.23 1.25-6.3 2.047-8.374.3-.782.51-1.458.467-1.5-.043-.044-1.507-.473-3.252-.955-2.943-.811-3.454-.874-7.01-.857-3.073.015-4.812.189-8.732.872-2.692.469-6.34.921-8.107 1.005-3.001.143-3.23.119-3.489-.365-.18-.338-.193-.879-.035-1.558.335-1.447.313-5.076-.06-9.855-.512-6.55.05-9.097 3.398-15.402 2.809-5.291 3.262-7.401 1.796-8.362-.8-.524-4.278-1.136-6.52-1.148-3.168-.016-6.343.977-6.63 2.075-.243.928.285 2.86 1.778 6.504.99 2.415 1.465 3.94 1.464 4.703 0 .781-.49 2.3-1.59 4.932-2.034 4.861-4.019 10.777-4.805 14.32-.526 2.373-.616 3.514-.616 7.806 0 4.727.037 5.102.615 6.276.69 1.399 1.997 2.459 5.074 4.113 7.559 4.063 17.167 5.845 25.802 4.784 2.632-.324 3.307-.16 3.298.8-.01 1.055-.567 1.238-5.354 1.759-1.004.11-1.521.285-1.521.517 0 .748 1.621 3.368 4.102 6.63 4.099 5.389 4.639 6.95 5.19 14.988.178 2.594.407 4.715.509 4.715.101 0 .436-1.22.744-2.712m26.233-38.887c1.776-.422 2.966-1.1 4.065-2.316C.379 74.062.725 73.167.21 72.6c-.67-.742-.996-1.943-1.175-4.335l-.174-2.32-3.141 1.887c-1.826 1.097-3.553 1.943-4.124 2.02-1.079.144-1.52-.04-4.905-2.051-3.428-2.036-3.261-2.097-3.253 1.199.008 2.99-.258 3.709-1.44 3.887-.448.068-.252.365 1.201 1.816 1.897 1.893 3.775 3.054 5.535 3.42 1.281.267 4.51.102 6.291-.32m-13.946-9.465c-.073-2.584-.698-5.122-1.99-8.07-2.093-4.782-2.398-5.61-3.13-8.495-.457-1.806-.867-4.42-1.064-6.785l-.32-3.847-5.054-.174c-2.78-.095-8.37-.197-12.422-.226l-7.367-.052-2.215 4.366c-3.182 6.267-3.182 6.268-3.05 12.303.061 2.765.12 6.501.133 8.303l.022 3.276 2.249-.148c1.237-.081 4.451-.532 7.144-1.002 3.737-.652 5.708-.858 8.334-.872 3.77-.02 4.797.154 10.319 1.738 4.201 1.204 6.839 1.785 7.805 1.716.648-.046.66-.087.606-2.031m27.175.862c7.95-2.226 8.086-2.251 12.039-2.264 2.993-.009 4.668.152 8.731.841 2.765.469 5.989.922 7.164 1.007l2.137.155-.015-2.748c-.008-1.511.087-5.01.214-7.775.29-6.345.176-6.84-3.08-13.425l-2.451-4.958-1.19.12c-.656.065-5.3.186-10.32.267s-9.931.217-10.914.301l-1.786.154v1.174c0 1.725-.505 6.057-.936 8.033-.243 1.112-1.313 3.588-3.031 7.011-1.461 2.91-2.833 6.001-3.049 6.869-.397 1.598-.533 5.29-.223 6.096.236.616 2.46.332 6.71-.858" style="fill:currentColor;stroke-width:.264583" transform="translate(91.718 -32.198)"/></svg>