<?xml version="1.0" encoding="UTF-8" standalone="no"?>
<!-- Created with Inkscape (http://www.inkscape.org/) -->

<svg
   width="78.255745mm"
   height="115.11607mm"
   viewBox="0 0 78.255745 115.11607"
   version="1.1"
   id="svg5295"
   inkscape:version="1.2.2 (b0a8486541, 2022-12-01)"
   xmlns:inkscape="http://www.inkscape.org/namespaces/inkscape"
   xmlns:sodipodi="http://sodipodi.sourceforge.net/DTD/sodipodi-0.dtd"
   xmlns="http://www.w3.org/2000/svg"
   xmlns:svg="http://www.w3.org/2000/svg">
  <sodipodi:namedview
     id="namedview5297"
     pagecolor="#ffffff"
     bordercolor="#000000"
     borderopacity="0.25"
     inkscape:showpageshadow="2"
     inkscape:pageopacity="0.0"
     inkscape:pagecheckerboard="0"
     inkscape:deskcolor="#d1d1d1"
     inkscape:document-units="mm"
     showgrid="false"
     inkscape:zoom="0.59241723"
     inkscape:cx="295.39992"
     inkscape:cy="462.51187"
     inkscape:window-width="1534"
     inkscape:window-height="831"
     inkscape:window-x="66"
     inkscape:window-y="32"
     inkscape:window-maximized="1"
     inkscape:current-layer="layer1" />
  <defs
     id="defs5292" />
  <g
     inkscape:label="Layer 1"
     inkscape:groupmode="layer"
     id="layer1"
     transform="translate(-26.971376,-26.405878)">
    <path
       style="fill:#000000;stroke-width:0.264583"
       d="m 61.564544,140.88577 c -3.087069,-1.27013 -5.34574,-3.21215 -7.594579,-6.52986 -0.443873,-0.65484 -1.871086,-2.39151 -3.171586,-3.85926 -2.46557,-2.78266 -3.076,-3.877 -3.38731,-6.07251 -0.1024,-0.72216 -0.46094,-2.38991 -0.79676,-3.70612 -0.87778,-3.44029 -1.14943,-5.76135 -1.44864,-12.37764 -0.32368,-7.15722 -0.65473,-10.425205 -1.37156,-13.539675 -1.2387,-5.38189 -2.85329,-8.92103 -7.91935,-17.35899 -4.79076,-7.97943 -6.68335,-12.39164 -7.87528,-18.35976 -1.28152,-6.4167 -1.34185,-10.1222 -0.31015,-19.05 0.8471,-7.3304 0.80253,-7.14375 1.70583,-7.14375 1.48147,0 1.49587,0.49563 0.29968,10.31875 -0.44973,3.69314 -0.51407,8.50502 -0.14465,10.81741 0.87987,5.50752 1.1947,6.95409 2.11453,9.71561 1.2855,3.85933 2.70794,6.69487 6.62242,13.20135 3.65011,6.06705 4.75262,8.19642 6.09614,11.77396 1.90637,5.07631 2.70379,9.94326 3.03449,18.520835 0.30358,7.87416 1.18305,13.91129 2.14255,14.70761 0.22253,0.18468 1.48865,0.37059 2.958629,0.43442 2.298636,0.0998 2.695194,0.0467 3.760255,-0.50376 l 1.190625,-0.61535 -0.08878,-3.57188 c -0.145417,-5.85051 0.47865,-8.40173 3.093948,-12.64822 2.169843,-3.5232 2.592178,-4.89885 2.184043,-7.113895 -0.173363,-0.94087 -0.773369,-2.86219 -1.333344,-4.26959 -1.983782,-4.98591 -2.840276,-8.69967 -3.476368,-15.07354 -0.373423,-3.74186 0.576468,-1.83146 -7.788208,-15.6635 -2.59603,-4.29287 -5.16724,-8.77066 -5.7138,-9.95066 -2.20482,-4.76013 -3.67537,-10.96074 -3.67747,-15.50618 -9.4e-4,-2.03561 0.0609,-2.33898 0.5281,-2.58899 0.34671,-0.18555 0.69272,-0.19568 1.00347,-0.0294 0.39196,0.20977 0.52973,0.86594 0.79358,3.77962 0.53075,5.861 2.01489,10.87401 4.6234,15.61654 0.6161,1.12013 3.50143,5.97117 6.411847,10.78009 l 5.291667,8.7435 0.79375,-0.15775 c 1.141465,-0.22686 2.784869,-1.18672 3.348151,-1.95556 0.478192,-0.6527 0.470363,-0.70177 -0.590931,-3.70417 -3.294486,-9.32011 -5.847138,-20.52787 -7.005889,-30.76028 -0.480933,-4.2469 -0.400262,-4.69388 0.847154,-4.69388 0.890537,0 1.029176,0.49238 1.676241,5.95312 0.659495,5.56563 1.727867,11.27437 3.218537,17.19792 1.118767,4.4457 4.381315,14.67614 5.400141,16.93333 0.922644,2.0441 1.27105,4.33316 1.099822,7.22598 -0.186343,3.1482 -0.734369,4.80511 -1.939179,5.86294 -1.234212,1.08366 -2.495481,1.09368 -3.560857,0.0283 -0.583251,-0.58325 -0.774235,-1.02234 -0.776804,-1.78593 -0.0019,-0.5569 -0.300895,-1.60786 -0.664493,-2.33546 l -0.661091,-1.32292 0.143733,1.5732 c 0.318458,3.48564 0.80527,5.25235 3.571258,12.96064 0.770591,2.14749 0.838195,2.58186 0.74123,4.7625 -0.11567,2.601375 -0.14406,2.671505 -3.212475,7.935655 -1.280946,2.19757 -2.143612,5.14772 -1.984499,6.78659 l 0.08537,0.87932 0.949217,-0.83603 c 1.788282,-1.57502 5.404337,-9.37437 7.118204,-15.353005 1.973186,-6.88325 2.501519,-11.63315 2.301709,-20.69324 -0.224526,-10.18078 -1.067115,-19.42042 -2.330855,-25.55963 l -0.550267,-2.67319 0.654947,-1.82473 c 1.690835,-4.71081 3.402637,-13.01823 3.783446,-18.361194 0.204139,-2.864156 0.41479,-3.439583 1.259157,-3.439583 0.94228,0 1.234234,0.516156 1.234234,2.182046 0,1.302635 0.164843,1.848131 1.0434,3.452811 0.573871,1.04817 1.539537,3.33452 2.145927,5.08077 1.907403,5.49285 5.275522,11.30226 7.011202,12.09309 0.833101,0.37959 1.038058,0.15865 0.714322,-0.77002 -0.153564,-0.44052 -0.165156,-0.99571 -0.0285,-1.36512 0.202887,-0.54846 0.348302,-0.60305 1.220427,-0.45819 1.963203,0.32611 2.016099,0.31664 2.275891,-0.40737 0.38508,-1.07316 -0.494065,-2.22459 -4.289296,-5.61775 -3.620653,-3.23709 -4.502004,-4.31505 -5.472493,-6.69329 -0.999297,-2.448838 -1.875417,-6.382024 -1.5406,-6.916249 0.315986,-0.504177 1.358302,-0.745893 1.708086,-0.39611 0.126183,0.126181 0.54187,1.475715 0.923751,2.998964 1.126315,4.492635 1.469821,5.028665 5.942182,9.272565 2.176483,2.0653 4.218008,4.17702 4.536725,4.69272 0.724744,1.17266 0.776873,3.12496 0.110588,4.14183 -0.46814,0.71448 -0.467312,0.71719 0.514588,1.68486 0.540914,0.53308 1.279975,1.60839 1.642354,2.38957 0.550635,1.18701 0.637122,1.69128 0.526481,3.06965 -0.158049,1.96894 -0.880764,3.51087 -2.969218,6.33487 -2.923487,3.95314 -2.864651,3.68559 -3.109137,14.13874 -0.116917,4.99873 -0.181483,13.90202 -0.143481,19.78509 l 0.06909,10.696495 2.910416,1.17595 2.910417,1.17595 3.042708,-0.68257 c 3.625541,-0.81332 6.005906,-0.91229 6.956766,-0.28927 0.9542,0.62522 2.30365,2.73796 2.30365,3.60668 0,1.01564 -1.08764,2.14203 -2.06835,2.14203 -0.42389,0 -1.09528,-0.25531 -1.49199,-0.56736 -0.60179,-0.47337 -0.70246,-0.72542 -0.60767,-1.52135 0.0625,-0.5247 0.21242,-1.18128 0.33318,-1.45907 0.2043,-0.46999 0.12916,-0.4931 -1.08166,-0.33276 -0.715671,0.0948 -2.528167,0.42826 -4.027775,0.74108 l -2.726555,0.56876 -0.678307,1.33857 c -0.373068,0.73621 -0.917496,1.66209 -1.209842,2.05751 l -0.531537,0.71894 1.02358,0.88149 c 2.667082,2.29683 3.585078,3.30289 4.200157,4.60306 0.366144,0.77396 0.784546,1.48065 0.929783,1.57041 0.338574,0.20925 0.341747,1.60912 0.0051,2.23821 -0.405397,0.75749 -1.615538,1.06986 -2.577586,0.66535 -1.043414,-0.43872 -1.387917,-1.68039 -0.74041,-2.66861 0.5418,-0.82689 0.318542,-1.23472 -1.764009,-3.22231 -2.935917,-2.80204 -3.609962,-3.18288 -8.59926,-4.85867 -4.799081,-1.61189 -7.625742,-2.31142 -9.41601,-2.33024 l -0.99899,-0.0105 0.420449,0.81307 c 0.536758,1.03797 0.300749,2.18316 -0.595148,2.88788 -0.88423,0.69553 -1.472026,0.67196 -2.363417,-0.0948 -0.989862,-0.85145 -0.96864,-2.05499 0.06621,-3.7549 1.33486,-2.19272 2.429854,-2.49079 6.663375,-1.81382 0.985642,0.15761 1.067139,0.11573 1.662002,-0.85408 0.344045,-0.5609 1.130196,-1.56244 1.747001,-2.22565 0.83725,-0.90023 1.083299,-1.35178 0.970865,-1.78173 l -0.150604,-0.57591 -0.667379,0.52496 c -0.896361,0.70508 -1.806578,0.66138 -2.59242,-0.12447 -0.889984,-0.88998 -0.837271,-1.94954 0.160036,-3.21679 2.010286,-2.554415 3.622223,-1.912335 5.180918,2.06372 l 0.756488,1.92971 0.07024,-4.89225 c 0.558112,-38.874975 0.264747,-35.104825 3.047791,-39.168445 2.845813,-4.15527 3.139355,-4.67021 3.286164,-5.76476 0.251466,-1.87482 -0.109863,-2.90241 -1.514467,-4.30701 -1.306684,-1.30669 -1.847016,-1.58223 -1.847016,-0.9419 0,0.50818 -1.074738,1.43335 -1.904177,1.63916 -1.510046,0.37471 -3.405934,-0.93053 -5.580595,-3.842 -0.496424,-0.66462 -1.124781,-1.07542 -2.225852,-1.45521 -1.20637,-0.4161 -1.552641,-0.65947 -1.620623,-1.13904 -0.105709,-0.74567 0.374785,-1.3745 1.050271,-1.3745 0.492816,0 0.492781,-0.0184 -0.0019,-0.99218 -0.277185,-0.54571 -1.007287,-2.42094 -1.622449,-4.16719 -0.615159,-1.74625 -1.27458,-3.47266 -1.465376,-3.83646 -0.417274,-0.79564 -0.430435,-0.76185 -1.030362,2.64583 -0.553201,3.14229 -1.769366,7.98457 -2.653368,10.56467 l -0.6735,1.9657 0.51407,2.66451 c 1.758177,9.11289 2.902148,27.85241 2.147252,35.17438 -0.85607,8.30328 -3.691345,17.607285 -7.455799,24.466315 l -1.068234,1.94638 0.616638,0.65855 c 0.747035,0.79781 3.898405,2.76097 8.653031,5.39044 2.246831,1.24257 3.779909,2.27343 4.199879,2.82404 0.7902,1.036 1.066522,2.90287 0.597332,4.0356 -0.714659,1.72539 -3.375909,3.17816 -5.821889,3.17816 -1.131732,0 -4.043842,-0.75084 -6.047381,-1.55922 l -1.416939,-0.5717 0.801442,0.99932 c 0.44079,0.54962 1.401535,1.70345 2.134989,2.56406 1.785969,2.0956 2.272604,3.15119 2.275943,4.93687 0.0072,3.85674 -4.08029,5.88104 -8.337944,4.12928 z m 4.345871,-1.8717 c 1.693299,-0.7075 2.225977,-2.41241 1.252487,-4.00877 -0.270272,-0.4432 -1.192561,-1.59613 -2.049531,-2.56205 -0.85697,-0.96592 -2.629688,-3.37217 -3.939376,-5.34722 -1.644362,-2.47975 -2.504064,-3.55341 -2.778125,-3.46953 -0.218281,0.0668 -1.11125,0.37908 -1.984375,0.69394 -1.365134,0.49227 -1.944828,0.55138 -4.138488,0.42199 l -2.550988,-0.15047 0.29073,0.94728 c 0.16963,0.55271 1.16288,1.89741 2.384604,3.22833 1.151631,1.25458 2.729926,3.18341 3.507322,4.28628 2.315858,3.28548 4.491128,5.04024 7.385987,5.95816 1.383659,0.43875 1.57426,0.43889 2.619753,0.002 z m 8.200374,-11.26217 c 1.701689,-0.64699 2.279764,-2.34025 1.152269,-3.37518 -0.327422,-0.30054 -2.083594,-1.37744 -3.902605,-2.39311 -4.888796,-2.72972 -6.07128,-3.44428 -7.616004,-4.60225 l -1.398297,-1.0482 -1.322586,0.61086 -1.322586,0.61085 0.163103,1.71979 c 0.295415,3.11498 1.899266,4.95346 5.996141,6.87332 3.590546,1.68259 6.537057,2.25539 8.250565,1.60392 z m 16.101227,-15.97993 c 0.400182,-0.63346 0.727604,-1.3347 0.727604,-1.5583 0,-0.43793 -0.938959,-0.87445 -4.481404,-2.08339 -3.114789,-1.06299 -3.495823,-1.02461 -4.6346,0.46681 -0.515991,0.67577 -0.938163,1.36817 -0.938163,1.53867 0,0.30332 7.025013,2.70648 8.069792,2.76056 0.352438,0.0183 0.772171,-0.35726 1.256771,-1.12435 z M 65.195622,83.092885 c 0.641191,-1.50487 0.779685,-5.95673 0.242763,-7.80368 l -0.430961,-1.48245 -1.504275,0.90583 c -0.82735,0.4982 -1.719639,0.90583 -1.982859,0.90583 -0.263224,0 -0.478587,0.12485 -0.478587,0.27746 0,0.1526 0.66284,1.55159 1.472978,3.10885 0.810136,1.55727 1.540187,3.33741 1.622335,3.95587 0.184232,1.38701 0.50682,1.42732 1.058606,0.13229 z"
       id="path5276" />
  </g>
</svg>
