<?xml version="1.0" encoding="UTF-8" standalone="no"?>
<!-- Created with Inkscape (http://www.inkscape.org/) -->

<svg
   width="129.23808mm"
   height="160.69983mm"
   viewBox="0 0 129.23808 160.69983"
   version="1.1"
   id="svg5502"
   inkscape:version="1.2.2 (b0a8486541, 2022-12-01)"
   xmlns:inkscape="http://www.inkscape.org/namespaces/inkscape"
   xmlns:sodipodi="http://sodipodi.sourceforge.net/DTD/sodipodi-0.dtd"
   xmlns="http://www.w3.org/2000/svg"
   xmlns:svg="http://www.w3.org/2000/svg">
  <sodipodi:namedview
     id="namedview5504"
     pagecolor="#ffffff"
     bordercolor="#000000"
     borderopacity="0.25"
     inkscape:showpageshadow="2"
     inkscape:pageopacity="0.0"
     inkscape:pagecheckerboard="0"
     inkscape:deskcolor="#d1d1d1"
     inkscape:document-units="mm"
     showgrid="false"
     inkscape:zoom="0.62092452"
     inkscape:cx="244.79626"
     inkscape:cy="304.38482"
     inkscape:window-width="1534"
     inkscape:window-height="831"
     inkscape:window-x="66"
     inkscape:window-y="32"
     inkscape:window-maximized="1"
     inkscape:current-layer="layer1" />
  <defs
     id="defs5499" />
  <g
     inkscape:label="Layer 1"
     inkscape:groupmode="layer"
     id="layer1"
     transform="translate(-40.204489,-68.36314)">
    <path
       style="fill:#000000;stroke-width:0.264583"
       d="m 84.91084,229.00538 c -1.0914,-0.0493 -5.02047,-0.21777 -8.73125,-0.37447 -14.41189,-0.6086 -33.22415,-2.01348 -34.0651,-2.54395 -0.70842,-0.44686 -0.80527,-1.70306 -0.17954,-2.32879 0.52087,-0.52087 0.56462,-0.52034 7.9186,0.0944 8.12755,0.67942 20.73062,1.46927 20.89066,1.30923 0.20176,-0.20176 1.39906,-7.76135 1.91142,-12.06841 0.33965,-2.85521 0.46279,-5.86389 0.45767,-11.18225 -0.007,-7.65295 -0.23541,-10.02484 -1.46963,-15.28524 -0.47553,-2.02673 -0.67163,-2.47382 -1.12866,-2.57309 -1.92549,-0.41828 -19.73815,-1.4511 -25.15938,-1.4588 -4.29404,-0.006 -4.9829,-0.21393 -5.11128,-1.54213 -0.167,-1.72781 -0.15246,-1.73086 7.36024,-1.54304 18.77986,0.46952 38.53588,2.7063 56.75313,6.42562 3.20146,0.65363 6.83006,1.3716 8.06355,1.5955 1.2335,0.22391 4.56637,0.98238 7.40639,1.6855 2.84001,0.70312 5.19919,1.24287 5.24261,1.19945 0.11452,-0.11453 -0.66201,-8.04481 -1.146,-11.70337 -1.94399,-14.69502 -6.41445,-29.88609 -12.94977,-44.00457 -2.25645,-4.8747 -5.60839,-11.14693 -7.4509,-13.94233 -1.78619,-2.70995 -3.01139,-3.76033 -7.20751,-6.17908 -4.11766,-2.37353 -6.05533,-3.83775 -7.24231,-5.47272 -1.32617,-1.82669 -1.53496,-2.29776 -2.31792,-5.22983 -0.80298,-3.00702 -0.73726,-2.9584 -3.58619,-2.6533 l -1.63684,0.17529 -0.1141,2.42963 c -0.12519,2.66583 -0.58061,3.87456 -2.12072,5.62865 -2.02192,2.30284 -4.42504,3.0731 -9.733,3.11965 -3.27996,0.0288 -3.67833,-0.0211 -4.8744,-0.60973 -1.67343,-0.82361 -3.12529,-2.28442 -4.01455,-4.03928 -0.63501,-1.25314 -0.79446,-2.21852 -1.60748,-9.732473 -0.54717,-5.05702 -0.84373,-8.91433 -0.75317,-9.79656 0.29599,-2.8835 2.38427,-5.73526 5.06967,-6.92313 1.4476,-0.64035 7.10765,-1.36268 8.97298,-1.14513 2.84366,0.33166 5.62176,2.35019 6.80021,4.94094 l 0.5932,1.30411 1.98437,-0.17894 c 1.09141,-0.0984 2.06154,-0.22351 2.15586,-0.27798 0.0943,-0.0545 0.25521,-0.9627 0.35755,-2.0183 0.47343,-4.88317 2.97768,-8.80532 6.74866,-10.56973 3.27618,-1.53289 9.5235,-2.46419 15.14995,-2.25842 4.05717,0.14838 6.4746,0.67108 8.98352,1.94244 2.78265,1.41008 5.17123,4.73044 5.44383,7.56748 l 0.12871,1.33954 2.54253,-0.17647 c 1.39839,-0.0971 3.17331,-0.24958 3.94428,-0.33894 1.39318,-0.16148 1.4007,-0.16729 1.22875,-0.95015 -0.0952,-0.43323 -0.17758,-1.78367 -0.18318,-3.00098 -0.009,-1.96465 0.0845,-2.40569 0.83288,-3.9258 0.92537,-1.87969 2.41231,-3.3544 4.19643,-4.16188 1.36417,-0.61742 7.10735,-1.37877 8.8818,-1.17743 1.60112,0.18168 3.74243,1.14909 5.0133,2.26493 0.53608,0.47068 1.33734,1.59244 1.78059,2.49281 0.76198,1.54781 0.85527,2.10362 1.71176,10.19867 0.97337,9.19962 0.96278,10.0802 -0.14877,12.37637 -0.73708,1.52261 -3.09641,3.6295 -4.66374,4.16474 -1.66615,0.568993 -6.10003,1.041063 -8.29976,0.883673 -2.23414,-0.15985 -4.11556,-1.150733 -5.772,-3.039903 -1.27087,-1.44941 -1.65478,-1.58534 -3.45864,-1.22457 -1.08436,0.21687 -1.10665,0.10274 1.3398,6.861073 3.88137,10.72228 7.49901,19.02101 17.23449,39.53515 9.34823,19.69815 11.55763,24.58088 15.18277,33.55352 6.36231,15.74746 8.27653,23.96864 7.00351,30.07877 -0.57941,2.78104 -2.20657,5.75266 -4.41658,8.06586 -7.58677,7.94098 -22.1563,12.25103 -47.46413,14.04114 -3.7359,0.26425 -28.31167,0.53607 -32.27917,0.35702 z m 33.60209,-3.5248 c 25.67286,-2.08716 40.00976,-6.76185 45.33863,-14.78313 3.65152,-5.49646 3.28036,-11.52897 -1.52339,-24.76004 -3.80463,-10.47917 -7.62509,-19.20556 -17.62175,-40.25022 -11.18207,-23.54017 -14.82056,-31.96188 -18.80392,-43.52396 l -1.77751,-5.159373 -0.8878,0.0669 c -2.11949,0.15974 -26.88249,2.73539 -27.5011,2.86044 -1.32199,0.267253 -1.81945,-0.51207 -2.10659,-3.30024 -0.43614,-4.23483 0.24047,-7.98039 1.94991,-10.79445 1.70104,-2.80021 1.81776,-3.69696 0.55602,-4.27185 -1.14549,-0.52192 -1.8083,0.0806 -4.9917,4.53773 -2.66921,3.7372 -3.14095,4.82604 -3.11642,7.1932 0.0221,2.12893 1.06135,7.562443 2.03764,10.652953 1.12877,3.5732 2.19518,4.666 7.56133,7.74855 4.0967,2.35332 5.4843,3.37064 6.89393,5.05428 3.43575,4.10363 10.38452,18.00425 14.33243,28.67123 4.81599,13.01245 8.43761,29.01878 9.46682,41.84015 l 0.34271,4.26931 1.54704,0.43012 c 1.70568,0.47422 2.26634,1.1615 1.95604,2.39782 -0.35059,1.39686 -1.05582,1.40371 -6.04757,0.0587 -18.457,-4.97318 -31.74496,-7.56792 -50.49578,-9.86031 l -1.21915,-0.14905 0.61364,2.97213 c 1.05106,5.09072 1.29639,7.95409 1.2789,14.92655 -0.0175,6.98534 -0.35663,11.03889 -1.56974,18.76398 -0.36377,2.31654 -0.6169,4.2564 -0.5625,4.3108 0.57588,0.57588 37.46855,0.65722 44.34988,0.0978 z M 74.39713,109.01312 c 1.25629,-0.32499 2.71165,-1.59074 3.4156,-2.9706 0.66118,-1.29601 0.61869,-2.50752 -0.42832,-12.213663 -0.65337,-6.05695 -0.77401,-6.71462 -1.431,-7.80116 -0.53008,-0.87664 -1.11496,-1.38985 -2.23921,-1.96481 l -1.52173,-0.77824 -3.23196,0.33078 c -3.67668,0.37629 -4.98385,0.84616 -6.19659,2.22741 -1.56292,1.78009 -1.58256,2.13445 -0.6297,11.35817 0.71452,6.916673 0.95092,8.463903 1.44501,9.457723 0.69298,1.39386 2.34509,2.65586 3.78278,2.88955 1.14236,0.18568 5.5425,-0.14903 7.03512,-0.53516 z m 9.36614,-10.983353 1.57589,-0.16471 -0.34154,-2.28269 c -0.18784,-1.25547 -0.41259,-3.19641 -0.49944,-4.31321 l -0.15791,-2.03052 -0.83919,0.1042 c -3.67661,0.45651 -3.39887,0.35975 -3.24728,1.13133 0.0766,0.38987 0.27103,2.1376 0.43208,3.88385 0.16104,1.74625 0.34037,3.32383 0.3985,3.50573 0.12008,0.37575 0.46674,0.39724 2.67889,0.16602 z m 60.22938,-0.87218 c 1.93757,-0.45546 3.5933,-2.05233 4.16516,-4.01709 0.19477,-0.66917 0.0526,-2.92929 -0.55578,-8.83664 -0.44961,-4.36563 -0.93422,-8.39073 -1.0769,-8.94468 -0.35069,-1.3615 -1.85775,-2.96406 -3.30846,-3.51809 -1.06544,-0.4069 -1.52625,-0.42242 -4.34681,-0.14641 -3.74811,0.36678 -4.98457,0.80787 -6.18025,2.20477 -1.36625,1.59615 -1.57016,2.83699 -1.0938,6.65602 0.22085,1.77057 0.64106,5.51571 0.93379,8.32253 0.55223,5.29492 0.76334,6.04764 2.03314,7.24923 1.53249,1.45016 2.06299,1.5903 5.38144,1.42153 1.67349,-0.0851 3.4953,-0.26113 4.04847,-0.39117 z m -35.73204,-1.74597 c 15.71071,-1.60217 21.14357,-2.19937 21.28377,-2.33956 0.14258,-0.14258 -0.66826,-8.1505 -0.84297,-8.32521 -0.0559,-0.0559 -1.56752,0.0313 -3.35913,0.19384 -5.41896,0.49155 -5.73407,0.54973 -5.90565,1.09035 -0.29813,0.9393 -3.00719,3.34325 -4.67912,4.15211 -2.42362,1.17253 -4.19613,1.53039 -7.35708,1.48533 -3.02932,-0.0432 -5.90289,-0.66117 -8.40877,-1.8084 -0.79462,-0.36379 -1.48532,-0.66143 -1.53488,-0.66143 -0.42785,0 -1.0455,5.11734 -0.78516,6.50509 0.17886,0.95341 0.18527,0.95741 1.28709,0.80186 0.60904,-0.086 5.24489,-0.57826 10.3019,-1.09398 z m 2.38901,-7.13147 c 3.14235,-0.66587 5.30033,-2.20837 6.43513,-4.59979 0.57651,-1.21491 0.5228,-2.65819 -0.15615,-4.19534 -1.12568,-2.54854 -3.36162,-3.97024 -7.47655,-4.75387 -4.3304,-0.82466 -13.30801,-0.003 -16.91215,1.54701 -1.69864,0.73074 -3.69986,2.89565 -4.39558,4.75513 -0.54619,1.45983 -1.07147,4.72578 -0.76006,4.72578 0.0883,0 0.84506,-0.98227 1.68172,-2.18282 3.9064,-5.60534 6.59166,-6.72416 9.60489,-4.00189 1.71105,1.54583 1.93935,3.22521 0.79351,5.83705 l -0.48589,1.10755 2.25954,0.81759 c 3.7003,1.33893 6.31081,1.60066 9.41159,0.9436 z"
       id="path5483" />
  </g>
</svg>
